<svg xmlns="http://www.w3.org/2000/svg" width="12" height="12" viewBox="0 0 12 12" fill="none">
  <g clip-path="url(#clip0_13358_6923)">
    <path fill-rule="evenodd" clip-rule="evenodd" d="M12.0004 0.749625C12.0003 0.621827 11.9676 0.496166 11.9053 0.384566C11.8431 0.272966 11.7533 0.179129 11.6446 0.111958C11.5359 0.0447864 11.4118 0.00650977 11.2841 0.000759684C11.1565 -0.0049904 11.0294 0.0219767 10.9151 0.0791023L5.07242 2.9997H2.25008C1.65332 2.9997 1.081 3.23676 0.659032 3.65873C0.237061 4.0807 0 4.65302 0 5.24977C0 5.84653 0.237061 6.41885 0.659032 6.84082C1.081 7.26279 1.65332 7.49985 2.25008 7.49985H2.46008L3.78838 11.487C3.83814 11.6364 3.93367 11.7663 4.06142 11.8584C4.18918 11.9505 4.34267 12 4.50015 12H5.25018C5.44909 12 5.63987 11.921 5.78052 11.7803C5.92118 11.6397 6.0002 11.4489 6.0002 11.25V7.96337L10.9151 10.4204C11.0294 10.4776 11.1565 10.5045 11.2841 10.4988C11.4118 10.493 11.5359 10.4548 11.6446 10.3876C11.7533 10.3204 11.8431 10.2266 11.9053 10.115C11.9676 10.0034 12.0003 9.87772 12.0004 9.74992V0.749625Z" fill="#6B6B7F"/>
  </g>
  <defs>
    <clipPath id="clip0_13358_6923">
      <rect width="12" height="12" fill="white"/>
    </clipPath>
  </defs>
</svg>