<svg width="25" height="24" viewBox="0 0 25 24" fill="none" xmlns="http://www.w3.org/2000/svg">
<path fill-rule="evenodd" clip-rule="evenodd" d="M6.25 2C6.94036 2 7.5 2.55964 7.5 3.25V4.5H8.75C9.44036 4.5 10 5.05964 10 5.75C10 6.44036 9.44036 7 8.75 7H7.5V8.25C7.5 8.94036 6.94036 9.5 6.25 9.5C5.55964 9.5 5 8.94036 5 8.25V7H3.75C3.05964 7 2.5 6.44036 2.5 5.75C2.5 5.05964 3.05964 4.5 3.75 4.5H5V3.25C5 2.55964 5.55964 2 6.25 2ZM6.25 14.5C6.94036 14.5 7.5 15.0596 7.5 15.75V17H8.75C9.44036 17 10 17.5596 10 18.25C10 18.9404 9.44036 19.5 8.75 19.5H7.5V20.75C7.5 21.4404 6.94036 22 6.25 22C5.55964 22 5 21.4404 5 20.75V19.5H3.75C3.05964 19.5 2.5 18.9404 2.5 18.25C2.5 17.5596 3.05964 17 3.75 17H5V15.75C5 15.0596 5.55964 14.5 6.25 14.5Z" fill="currentColor"/>
<path fill-rule="evenodd" clip-rule="evenodd" d="M14.9999 2C15.5671 2 16.0632 2.38185 16.2083 2.93013L17.6823 8.49866L21.8746 10.9173C22.2615 11.1405 22.4999 11.5533 22.4999 12C22.4999 12.4467 22.2615 12.8595 21.8746 13.0827L17.6823 15.5013L16.2083 21.0699C16.0632 21.6181 15.5671 22 14.9999 22C14.4328 22 13.9367 21.6181 13.7916 21.0699L12.3175 15.5013L8.12534 13.0827C7.7384 12.8595 7.5 12.4467 7.5 12C7.5 11.5533 7.7384 11.1405 8.12534 10.9173L12.3175 8.49867L13.7916 2.93013C13.9367 2.38185 14.4328 2 14.9999 2Z" fill="currentColor"/>
</svg>
