<svg width="25" height="24" viewBox="0 0 25 24" fill="none" xmlns="http://www.w3.org/2000/svg">
<path fill-rule="evenodd" clip-rule="evenodd" d="M5.1037 10.75H7.53579C7.64729 8.81701 8.01535 7.03634 8.58305 5.60285C6.7719 6.71418 5.46891 8.5731 5.1037 10.75ZM12.5 2C6.97715 2 2.5 6.47715 2.5 12C2.5 17.5228 6.97715 22 12.5 22C18.0228 22 22.5 17.5228 22.5 12C22.5 6.47715 18.0228 2 12.5 2ZM12.5 4.5C12.4049 4.5 12.2098 4.53966 11.9184 4.8273C11.6215 5.12025 11.2969 5.60613 10.9973 6.30521C10.5114 7.43888 10.1561 8.98198 10.0405 10.75H14.9595C14.8439 8.98198 14.4886 7.43888 14.0027 6.30521C13.7031 5.60613 13.3785 5.12025 13.0816 4.8273C12.7902 4.53966 12.5951 4.5 12.5 4.5ZM17.4642 10.75C17.3527 8.81701 16.9847 7.03634 16.4169 5.60285C18.2281 6.71418 19.5311 8.5731 19.8963 10.75H17.4642ZM14.9595 13.25H10.0405C10.1561 15.018 10.5114 16.5611 10.9973 17.6948C11.2969 18.3939 11.6215 18.8797 11.9184 19.1727C12.2098 19.4603 12.4049 19.5 12.5 19.5C12.5951 19.5 12.7902 19.4603 13.0816 19.1727C13.3785 18.8797 13.7031 18.3939 14.0027 17.6948C14.4886 16.5611 14.8439 15.018 14.9595 13.25ZM16.4169 18.3971C16.9847 16.9637 17.3527 15.183 17.4642 13.25H19.8963C19.5311 15.4269 18.2281 17.2858 16.4169 18.3971ZM8.58305 18.3971C8.01535 16.9637 7.64729 15.183 7.53579 13.25H5.1037C5.46891 15.4269 6.7719 17.2858 8.58305 18.3971Z" fill="currentColor"/>
</svg>
