<svg width="13" height="14" viewBox="0 0 13 14" fill="none" xmlns="http://www.w3.org/2000/svg">
<path d="M7.00003 8.23744C7.69457 8.23744 8.2576 7.68313 8.2576 6.99935C8.2576 6.31557 7.69457 5.76125 7.00003 5.76125C6.30549 5.76125 5.74246 6.31557 5.74246 6.99935C5.74246 7.68313 6.30549 8.23744 7.00003 8.23744Z" fill="white"/>
<path fill-rule="evenodd" clip-rule="evenodd" d="M1 6.99937C1.80123 4.48782 4.18452 2.66602 7.00001 2.66602C9.81548 2.66602 12.1988 4.4878 13 6.99933C12.1988 9.51088 9.81548 11.3327 6.99999 11.3327C4.18452 11.3327 1.80125 9.5109 1 6.99937ZM9.51517 6.99935C9.51517 8.36691 8.38911 9.47554 7.00003 9.47554C5.61095 9.47554 4.48489 8.36691 4.48489 6.99935C4.48489 5.63179 5.61095 4.52316 7.00003 4.52316C8.38911 4.52316 9.51517 5.63179 9.51517 6.99935Z" fill="white"/>
</svg>
