<svg width="12" height="12" viewBox="0 0 12 12" fill="none" xmlns="http://www.w3.org/2000/svg">
<path d="M0 6.375C0 5.75368 0.517887 5.25 1.15673 5.25C1.79558 5.25 2.31347 5.75368 2.31347 6.375V10.875C2.31347 11.4963 1.79558 12 1.15673 12C0.517887 12 0 11.4963 0 10.875V6.375Z" fill="white"/>
<path d="M3.08462 6.25V10.3229C3.08462 10.8911 3.41468 11.4105 3.93719 11.6646L3.97563 11.6833C4.40394 11.8916 4.87624 12 5.35511 12H9.53178C10.267 12 10.9 11.4953 11.0441 10.7942L11.9695 6.29418C12.1604 5.36599 11.4304 4.5 10.4572 4.5H7.71155V1.5C7.71155 0.671573 7.02104 0 6.16924 0C5.74334 0 5.39809 0.335786 5.39809 0.75V1.25C5.39809 1.89911 5.18161 2.53071 4.78116 3.05L3.70154 4.45C3.30109 4.96929 3.08462 5.60089 3.08462 6.25Z" fill="white"/>
</svg>
