<svg xmlns="http://www.w3.org/2000/svg" width="21" height="22" viewBox="0 0 21 22" fill="none">
  <path d="M0.5 11.625C0.5 10.5895 1.36314 9.75 2.42789 9.75C3.49263 9.75 4.35578 10.5895 4.35578 11.625V19.125C4.35578 20.1605 3.49263 21 2.42789 21C1.36314 21 0.5 20.1605 0.5 19.125V11.625Z" fill="#2ABAA5"/>
  <path d="M5.64103 11.4167V18.2049C5.64103 19.1518 6.19113 20.0175 7.06198 20.441L7.12604 20.4721C7.8399 20.8193 8.62706 21 9.42519 21H16.3863C17.6116 21 18.6666 20.1589 18.9069 18.9903L20.4492 11.4903C20.7673 9.94331 19.5507 8.5 17.9286 8.5H13.3526V3.5C13.3526 2.11929 12.2017 1 10.7821 1C10.0722 1 9.49681 1.55964 9.49681 2.25V3.08333C9.49681 4.16518 9.13602 5.21785 8.4686 6.08333L6.66924 8.41667C6.00182 9.28215 5.64103 10.3348 5.64103 11.4167Z" fill="#2ABAA5"/>
  <path d="M0.5 11.625C0.5 10.5895 1.36314 9.75 2.42789 9.75C3.49263 9.75 4.35578 10.5895 4.35578 11.625V19.125C4.35578 20.1605 3.49263 21 2.42789 21C1.36314 21 0.5 20.1605 0.5 19.125V11.625Z" stroke="white" stroke-width="0.7"/>
  <path d="M5.64103 11.4167V18.2049C5.64103 19.1518 6.19113 20.0175 7.06198 20.441L7.12604 20.4721C7.8399 20.8193 8.62706 21 9.42519 21H16.3863C17.6116 21 18.6666 20.1589 18.9069 18.9903L20.4492 11.4903C20.7673 9.94331 19.5507 8.5 17.9286 8.5H13.3526V3.5C13.3526 2.11929 12.2017 1 10.7821 1C10.0722 1 9.49681 1.55964 9.49681 2.25V3.08333C9.49681 4.16518 9.13602 5.21785 8.4686 6.08333L6.66924 8.41667C6.00182 9.28215 5.64103 10.3348 5.64103 11.4167Z" stroke="white" stroke-width="0.7"/>
</svg>