<svg  viewBox="0 0 12 12" fill="none" xmlns="http://www.w3.org/2000/svg">
<path d="M8.0772 0.52865C8.17912 0.148281 8.57009 -0.0774472 8.95046 0.0244723C9.33083 0.126392 9.55656 0.517364 9.45464 0.897733L9.2701 1.58645C9.16818 1.96682 8.77721 2.19255 8.39684 2.09063C8.01647 1.98871 7.79074 1.59774 7.89266 1.21737L8.0772 0.52865Z" fill="white"/>
<path d="M11.1023 2.54536C11.4826 2.44344 11.8736 2.66917 11.9755 3.04954C12.0774 3.42991 11.8517 3.82088 11.4714 3.9228L10.7826 4.10734C10.4023 4.20926 10.0113 3.98353 9.90937 3.60316C9.80745 3.22279 10.0332 2.83182 10.4135 2.7299L11.1023 2.54536Z" fill="white"/>
<path d="M4.81815 2.14008C4.5397 1.86163 4.5397 1.41017 4.81815 1.13172C5.0966 0.853273 5.54806 0.853273 5.8265 1.13172L6.33068 1.6359C6.60913 1.91435 6.60913 2.36581 6.33068 2.64425C6.05223 2.9227 5.60078 2.9227 5.32233 2.64425L4.81815 2.14008Z" fill="white"/>
<path d="M9.85992 7.18185L9.35575 6.67767C9.0773 6.39923 9.0773 5.94777 9.35575 5.66932C9.63419 5.39087 10.0857 5.39087 10.3641 5.66932L10.8683 6.1735C11.1467 6.45195 11.1467 6.9034 10.8683 7.18185C10.5898 7.4603 10.1384 7.4603 9.85992 7.18185Z" fill="white"/>
<path d="M7.57833 3.49482C7.84316 3.38889 8.14563 3.45098 8.34731 3.65266C8.549 3.85435 8.61109 4.15682 8.50515 4.42164L5.6531 11.5518C5.54882 11.8125 5.30125 11.9877 5.02071 11.9994C4.74017 12.0111 4.47891 11.857 4.35334 11.6059L3.36972 9.63861L1.21717 11.7912C0.938721 12.0696 0.487265 12.0696 0.208816 11.7912C-0.0696354 11.5127 -0.0696354 11.0613 0.208816 10.7828L2.36136 8.63026L0.394123 7.64664C0.142986 7.52107 -0.011075 7.2598 0.000593185 6.97926C0.0122614 6.69873 0.187489 6.45116 0.448186 6.34688L7.57833 3.49482Z" fill="white"/>
</svg>
