<svg width="14" height="12" viewBox="0 0 14 12" fill="none" xmlns="http://www.w3.org/2000/svg">
<g id="Frame 5654">
<path id="Icon" d="M9.75 4.5C10.9926 4.5 12 3.49264 12 2.25C12 1.00736 10.9926 0 9.75 0C8.50736 0 7.5 1.00736 7.5 2.25C7.5 2.34411 7.50578 2.43688 7.517 2.52796L3.81195 4.38048C3.40727 3.99011 2.85668 3.75 2.25 3.75C1.00736 3.75 0 4.75736 0 6C0 7.24264 1.00736 8.25 2.25 8.25C2.85669 8.25 3.4073 8.00988 3.81197 7.61949L7.517 9.47201C7.50578 9.5631 7.5 9.65587 7.5 9.75C7.5 10.9926 8.50736 12 9.75 12C10.9926 12 12 10.9926 12 9.75C12 8.50736 10.9926 7.5 9.75 7.5C9.14332 7.5 8.59272 7.74011 8.18805 8.13048L4.483 6.27796C4.49422 6.18688 4.5 6.09411 4.5 6C4.5 5.90587 4.49422 5.8131 4.483 5.72201L8.18803 3.86949C8.5927 4.25988 9.14331 4.5 9.75 4.5Z" fill="currentColor"/>
</g>
</svg>
