<?xml version="1.0" encoding="UTF-8"?>
<svg id="Layer_2" data-name="Layer 2" xmlns="http://www.w3.org/2000/svg" viewBox="0 0 588.2 808.06">
  <defs>
    <style>
      .cls-1 {
        fill: #fff;
      }

      .cls-2 {
        opacity: .11;
      }

      .cls-3 {
        fill: #fdb813;
      }

      .cls-4 {
        fill: #ccc;
      }
    </style>
  </defs>
  <g id="Layer_1-2">
    <g>
      <g>
        <path class="cls-1" d="m66.03,793.06c-3.06,0-6.1-.93-8.69-2.77-4.7-3.34-7.07-9.07-6.1-14.75l10.13-59.32-41.99-42.02c-4-4.01-5.41-9.93-3.63-15.31,1.78-5.38,6.44-9.3,12.04-10.13l11.47-1.7c-.22-2.39-.33-4.79-.33-7.2l.36-481.63c.02-26.46,13.41-50.67,35.83-64.74L181.52,26.71c12.2-7.66,26.26-11.71,40.67-11.71l168.28.13c14.42,0,28.5,4.08,40.71,11.77l106.28,66.93c22.4,14.1,35.75,38.33,35.73,64.79l-.36,481.63c-.02,26.47-13.42,50.67-35.83,64.74l-106.38,66.77c-12.2,7.66-26.28,11.71-40.72,11.71l-168.24-.13c-8.01,0-15.92-1.26-23.46-3.7-.46,4.33-2.79,8.33-6.51,10.85-2.53,1.71-5.47,2.58-8.41,2.58-2.68,0-5.37-.72-7.76-2.16l-48.54-29.35-53.71,29.65c-2.26,1.25-4.76,1.87-7.25,1.87Z"/>
        <path class="cls-4" d="m222.23,30l168.23.13c11.6,0,22.91,3.28,32.73,9.46l106.28,66.93c18,11.34,28.74,30.81,28.73,52.09l-.18,232.09-.19,249.55c-.02,21.28-10.78,40.73-28.81,52.04l-106.38,66.77c-9.81,6.16-21.11,9.41-32.74,9.41l-168.23-.13c-11.6,0-22.91-3.28-32.73-9.46l-9.84-6.2,4.18,25.38-55.96-33.84-61.3,33.84,11.44-66.97-47.47-47.51,27.14-4.02c-2.09-6.24-3.2-12.88-3.2-19.71l.18-232.09.19-249.55c.02-21.28,10.78-40.73,28.81-52.04l106.38-66.77c9.81-6.16,21.11-9.41,32.7-9.41h.05m.02-30h-.03c-17.27,0-34.09,4.84-48.68,14l-106.38,66.77c-26.81,16.83-42.84,45.78-42.86,77.43l-.19,249.55-.17,226.46c-10.47,2.15-19.05,9.74-22.43,19.97-3.56,10.76-.75,22.61,7.26,30.62l36.51,36.54-8.83,51.68c-1.94,11.36,2.8,22.83,12.19,29.51,5.18,3.68,11.27,5.55,17.38,5.55,4.98,0,9.97-1.24,14.5-3.74l46.12-25.46,41.12,24.87c4.78,2.89,10.16,4.33,15.52,4.33,5.88,0,11.75-1.73,16.82-5.16,2.44-1.65,4.59-3.63,6.4-5.84,4.98.84,10.05,1.27,15.15,1.27l168.23.13c17.28,0,34.12-4.84,48.71-14l106.38-66.77c26.81-16.83,42.83-45.78,42.86-77.43l.19-249.55.18-232.09c.02-31.66-15.95-60.63-42.74-77.5L439.18,14.2C424.58,5.01,407.74.14,390.49.13l-168.23-.13h0Z"/>
      </g>
      <g>
        <g>
          <path class="cls-3" d="m221.69,758.34c-9.71,0-19.19-2.75-27.41-7.92l-106.28-66.93c-15.08-9.5-24.07-25.8-24.06-43.62l.36-481.63c.01-17.82,9.03-34.11,24.12-43.58l106.38-66.77c8.21-5.16,17.68-7.88,27.37-7.88l168.27.13c9.71,0,19.19,2.75,27.41,7.92l106.28,66.93c15.08,9.5,24.07,25.8,24.06,43.62l-.36,481.63c-.01,17.82-9.03,34.11-24.12,43.58l-106.38,66.77c-8.21,5.16-17.68,7.88-27.38,7.88,0,0-168.27-.13-168.27-.13Z"/>
          <path class="cls-1" d="m222.19,50h.03l168.23.13c7.82,0,15.47,2.22,22.08,6.38l106.28,66.93c12.08,7.6,19.4,20.88,19.39,35.15l-.18,232.09-.19,249.55c-.01,14.27-7.35,27.53-19.44,35.12l-106.38,66.77c-6.61,4.15-14.26,6.35-22.06,6.35h-.03l-168.23-.13c-7.82,0-15.47-2.22-22.08-6.38l-106.28-66.93c-12.08-7.6-19.4-20.88-19.39-35.15l.18-232.09.19-249.55c.01-14.27,7.35-27.53,19.44-35.12l106.38-66.77c6.61-4.15,14.26-6.35,22.06-6.35m.05-20h-.05c-11.58,0-22.89,3.25-32.7,9.41l-106.38,66.77c-18.02,11.31-28.79,30.77-28.81,52.04l-.19,249.55-.18,232.09c-.02,21.28,10.72,40.75,28.73,52.09l106.28,66.93c9.81,6.18,21.13,9.45,32.73,9.46l168.23.13c11.63,0,22.93-3.25,32.74-9.41l106.38-66.77c18.02-11.31,28.79-30.77,28.81-52.04l.19-249.55.18-232.09c.02-21.28-10.72-40.75-28.73-52.09l-106.28-66.93c-9.81-6.18-21.13-9.45-32.73-9.46l-168.23-.13h0Z"/>
        </g>
        <path class="cls-1" d="m537.84,640.22l.19-249.55h0s.18-232.09.18-232.09c.01-14.27-7.31-27.54-19.39-35.15l-106.28-66.93c-6.61-4.16-14.27-6.38-22.08-6.38l-168.23-.13c-7.82,0-15.47,2.2-22.09,6.35l-.24.15,153.09.12c7.82,0,15.47,2.22,22.08,6.38l106.28,66.93c12.08,7.6,19.4,20.88,19.39,35.15l-.18,232.09h0s-.19,249.55-.19,249.55c-.01,14.27-7.35,27.53-19.44,35.12l-106.15,66.62h15.14c7.82.02,15.47-2.18,22.09-6.34l106.38-66.77c12.09-7.59,19.43-20.85,19.44-35.12Z"/>
        <g class="cls-2">
          <path class="cls-1" d="m537.84,640.22l.19-249.55h0s.18-232.09.18-232.09c.01-14.27-7.31-27.54-19.39-35.15l-106.28-66.93c-6.61-4.16-14.27-6.38-22.08-6.38l-100.83-.08,4.34,698.34,95.96.07c7.82,0,15.47-2.2,22.09-6.35l106.38-66.77c12.09-7.59,19.43-20.85,19.44-35.12Z"/>
        </g>
        <path class="cls-1" d="m219.8,663.59l-65.55-9.73-29.32-61.03-29.32,61.03-65.62,9.73,47.47,47.51-11.44,66.97,61.3-33.84,55.96,33.84-11.03-66.97,47.53-47.51Z"/>
        <g>
          <path class="cls-1" d="m412.58,325.34l30.64.04c.28,0,.51.23.51.51l.08,56.3c0,.15-.12.27-.27.27h0l-31.35-.04c-.17,0-.32.14-.32.32h0c.04,36.06.05,72.12.04,108.18,0,1.92-.05,6.13-.15,12.64-.08,5.54-.05,11.06.1,16.54,0,.21-.15.38-.36.39,0,0,0,0-.01,0h-67.87c-.18,0-.33-.15-.33-.33h0s0-137.27,0-137.27c0-.32-.25-.58-.57-.58,0,0,0,0,0,0l-21.36.11c-.19,0-.35-.15-.35-.34,0,0,0,0,0,0v-56.27c0-.23.19-.42.43-.42l21.55-.15c.17,0,.3-.14.3-.31,0,0,0,0,0,0-.16-11.03,1.61-21.66,5.29-31.89,1.48-4.11,3.28-7.91,5.4-11.4,8.51-14.01,20.75-23.78,36.74-29.33,5.07-1.76,10.26-3.08,15.56-3.95,11.58-1.9,23.22-2.38,34.93-1.45.06,0,.56-.01,1.5-.04.86-.03,1.25.37,1.16,1.21-.08.78-.13,1.18-.13,1.21-.08,18.32-.04,36.8.13,55.45,0,.27-.21.48-.47.48-.02,0-.04,0-.06,0-4.58-.54-9.04-.49-13.39.15-3.79.56-6.74,1.47-8.87,2.73-2.82,1.67-4.96,4.08-6.43,7.22-1.37,2.95-2.16,6.19-2.35,9.72-.01.17.11.31.28.32,0,0,.01,0,.02,0Z"/>
          <path class="cls-1" d="m144.18,499.5c-9.41-8.46-16.67-18.49-21.77-30.08-4.16-9.45-6.85-19.3-8.06-29.57-1.28-10.87-1.4-21.22-.35-31.03,1.43-13.39,4.92-25.58,10.47-36.54,8.81-17.37,22.08-30.33,39.81-38.88,8.62-4.16,17.42-7.03,26.39-8.61,16.37-2.88,32.46-2.53,48.27,1.06,9.42,2.14,18.45,5.86,27.09,11.17,11.52,7.08,20.9,16.22,28.12,27.4,2.21,3.41,4.22,7.11,6.03,11.11,3.83,8.41,6.53,17.16,8.08,26.24.03.21-.11.41-.32.44-.02,0-.04,0-.06,0h-71.37c-.35,0-.65-.24-.73-.58-1.32-5.84-4.23-10.71-8.71-14.59-2.42-2.1-5.1-3.59-8.04-4.5-2.71-.83-5.7-1.23-8.96-1.2-5.3.04-10,1.64-14.1,4.78-5.85,4.49-9.68,10.68-11.5,18.57-1.8,7.82-2.36,16.21-1.66,25.19.41,5.22,1.15,9.72,2.23,13.48,2.2,7.68,6.53,13.5,12.99,17.47,2.59,1.59,5.46,2.59,8.61,3,2.97.39,5.95.37,8.96-.04,3.85-.54,7.31-1.94,10.4-4.2,2.47-1.81,4.59-4.19,6.34-7.13,1.66-2.79,2.86-5.79,3.62-8.99.04-.16.18-.27.34-.27l71.66.08c.2,0,.37.16.37.36,0,.02,0,.05,0,.07-1.24,6.63-3.04,13.19-5.4,19.67-3.64,9.98-8.82,18.99-15.53,27.05-2.68,3.22-5.61,6.24-8.8,9.06-10.02,8.86-21.46,15.21-34.31,19.06-3.85,1.16-7.96,2.08-12.33,2.76-11.48,1.81-23.37,2.01-35.68.59-12.88-1.48-24.8-5.1-35.77-10.87-5.57-2.93-11-6.77-16.3-11.54Z"/>
        </g>
      </g>
    </g>
  </g>
</svg>