<?xml version="1.0" encoding="UTF-8"?>
<svg id="Layer_2" data-name="Layer 2" xmlns="http://www.w3.org/2000/svg" viewBox="0 0 535.46 758.46">
  <defs>
    <style>
      .cls-1 {
        fill: #fff;
      }

      .cls-2 {
        opacity: .11;
      }

      .cls-3 {
        fill: #fdb813;
      }
    </style>
  </defs>
  <g id="Layer_1-2">
    <g>
      <path class="cls-3" d="m194.42,738.32c-9.82,0-19.41-2.78-27.72-8.01l-107.8-67.89c-15.25-9.6-24.35-26.1-24.33-44.12l.37-488.52c.01-18.02,9.13-34.5,24.4-44.08L167.24,17.97c8.31-5.21,17.88-7.97,27.69-7.97l170.68.13c9.82,0,19.41,2.78,27.72,8.01l107.8,67.89c15.25,9.6,24.35,26.1,24.33,44.12l-.37,488.52c-.01,18.02-9.14,34.5-24.4,44.08l-107.9,67.72c-8.31,5.21-17.88,7.97-27.69,7.97,0,0-170.67-.13-170.67-.13Z"/>
      <path class="cls-1" d="m194.93,20h.03l170.63.13c7.93,0,15.69,2.25,22.4,6.47l107.8,67.89c12.25,7.71,19.67,21.18,19.66,35.65l-.18,235.4-.19,253.11c-.01,14.47-7.46,27.93-19.72,35.62l-107.9,67.72c-6.71,4.21-14.46,6.44-22.38,6.44h-.03l-170.63-.13c-7.93,0-15.69-2.25-22.4-6.47l-107.8-67.89c-12.25-7.71-19.67-21.18-19.66-35.65l.18-235.4h0l.19-253.11c.01-14.47,7.46-27.93,19.72-35.62L172.56,26.44c6.71-4.21,14.46-6.44,22.38-6.44m.05-20h-.05c-11.69,0-23.11,3.29-33.01,9.5L54.02,77.23c-18.2,11.42-29.07,31.06-29.08,52.55l-.19,253.11-.18,235.4c-.02,21.48,10.83,41.14,29.01,52.59l107.8,67.89c9.91,6.24,21.33,9.54,33.04,9.55l170.63.13c11.74,0,23.15-3.29,33.06-9.5l107.9-67.72c18.2-11.42,29.07-31.06,29.08-52.55l.19-253.11.18-235.4c.02-21.48-10.83-41.14-29.01-52.59L398.65,9.68C388.75,3.44,377.32.14,365.61.13l-170.63-.13h0Z"/>
    </g>
    <path class="cls-1" d="m515.09,618.66l.19-253.11h0s.18-235.4.18-235.4c.01-14.47-7.42-27.94-19.66-35.65l-107.8-67.89c-6.71-4.22-14.47-6.47-22.4-6.47l-170.63-.13c-7.93,0-15.69,2.23-22.41,6.44l-.24.15,155.27.12c7.93,0,15.69,2.25,22.4,6.47l107.8,67.89c12.25,7.71,19.67,21.18,19.66,35.65l-.18,235.4h0s-.19,253.11-.19,253.11c-.01,14.47-7.46,27.93-19.72,35.62l-107.66,67.57h15.36c7.93.02,15.69-2.21,22.41-6.43l107.9-67.72c12.26-7.69,19.71-21.15,19.72-35.62Z"/>
    <g class="cls-2">
      <path class="cls-1" d="m515.09,618.66l.19-253.11h0s.18-235.4.18-235.4c.01-14.47-7.42-27.94-19.66-35.65l-107.8-67.89c-6.71-4.22-14.47-6.47-22.4-6.47l-102.27-.08,4.41,708.32,97.33.07c7.93,0,15.69-2.23,22.41-6.44l107.9-67.72c12.26-7.69,19.71-21.15,19.72-35.62Z"/>
    </g>
    <path class="cls-1" d="m192.51,642.36l-66.49-9.87-29.73-61.9-29.73,61.9L0,642.36l48.14,48.18-11.6,67.92,62.18-34.32,56.76,34.32-11.19-67.92,48.21-48.18Z"/>
    <g>
      <path class="cls-1" d="m388.05,299.28l31.08.04c.29,0,.52.23.52.52l.08,57.1c0,.15-.12.27-.28.27h0l-31.8-.04c-.18,0-.32.15-.32.33h0c.04,36.58.06,73.15.04,109.73,0,1.95-.05,6.22-.15,12.82-.08,5.62-.05,11.21.1,16.77,0,.21-.16.38-.37.39,0,0,0,0-.01,0h-68.84c-.18,0-.33-.15-.33-.33h0s0-139.23,0-139.23c0-.33-.26-.59-.58-.59,0,0,0,0,0,0l-21.67.11c-.19,0-.36-.15-.36-.34,0,0,0,0,0,0v-57.08c0-.23.19-.43.44-.43l21.86-.15c.17,0,.31-.14.31-.31,0,0,0,0,0,0-.16-11.19,1.63-21.97,5.36-32.34,1.51-4.17,3.33-8.02,5.48-11.57,8.63-14.21,21.05-24.12,37.26-29.74,5.14-1.79,10.4-3.12,15.78-4,11.75-1.92,23.56-2.42,35.43-1.48.06,0,.57-.01,1.52-.04.88-.03,1.27.37,1.17,1.23-.09.79-.13,1.2-.13,1.23-.08,18.58-.04,37.32.13,56.24,0,.27-.21.49-.48.49-.02,0-.04,0-.06,0-4.64-.55-9.17-.5-13.58.15-3.84.56-6.84,1.49-9,2.77-2.86,1.69-5.03,4.14-6.52,7.33-1.39,2.99-2.19,6.28-2.39,9.86-.01.17.12.32.28.33,0,0,.01,0,.02,0Z"/>
      <path class="cls-1" d="m115.81,475.92c-9.55-8.58-16.91-18.75-22.09-30.51-4.22-9.58-6.94-19.58-8.17-29.99-1.3-11.03-1.42-21.52-.36-31.47,1.45-13.59,4.99-25.94,10.62-37.06,8.93-17.62,22.39-30.77,40.37-39.43,8.75-4.22,17.67-7.13,26.77-8.73,16.6-2.93,32.92-2.57,48.96,1.07,9.56,2.17,18.72,5.94,27.47,11.33,11.69,7.18,21.2,16.45,28.53,27.79,2.24,3.46,4.28,7.21,6.12,11.26,3.89,8.53,6.62,17.4,8.2,26.61.04.21-.11.41-.32.45-.02,0-.04,0-.06,0h-72.39c-.35,0-.66-.25-.74-.59-1.34-5.93-4.29-10.86-8.83-14.8-2.45-2.13-5.17-3.65-8.16-4.56-2.75-.84-5.78-1.24-9.09-1.22-5.38.04-10.14,1.66-14.3,4.85-5.93,4.55-9.82,10.83-11.67,18.83-1.83,7.93-2.39,16.45-1.68,25.55.41,5.3,1.17,9.86,2.26,13.68,2.23,7.79,6.62,13.69,13.18,17.72,2.63,1.61,5.54,2.63,8.73,3.05,3.01.39,6.04.38,9.08-.04,3.9-.55,7.42-1.97,10.55-4.26,2.51-1.84,4.65-4.25,6.43-7.24,1.68-2.83,2.9-5.87,3.67-9.12.04-.16.18-.27.34-.27l72.68.08c.21,0,.37.16.37.37,0,.02,0,.05,0,.07-1.25,6.73-3.08,13.38-5.48,19.95-3.69,10.12-8.94,19.26-15.75,27.44-2.72,3.26-5.69,6.32-8.93,9.19-10.17,8.98-21.76,15.43-34.8,19.33-3.91,1.17-8.08,2.11-12.51,2.8-11.64,1.83-23.71,2.04-36.19.6-13.06-1.5-25.16-5.18-36.28-11.03-5.65-2.97-11.16-6.87-16.53-11.7Z"/>
    </g>
  </g>
</svg>