<?xml version="1.0" encoding="utf-8"?>
<!-- Generator: Adobe Illustrator 25.2.1, SVG Export Plug-In . SVG Version: 6.00 Build 0)  -->
<svg version="1.1" id="Layer_1" xmlns="http://www.w3.org/2000/svg" xmlns:xlink="http://www.w3.org/1999/xlink" x="0px" y="0px"
	 viewBox="0 0 478.07 108.7" style="enable-background:new 0 0 478.07 108.7;" xml:space="preserve">
<style type="text/css">
	.st0{fill:#2ABAA5;}
</style>
<g>
	<g>
		<path d="M25.76,45.11c2.35,0,4.31,0.62,5.86,1.85c1.55,1.23,2.57,2.96,3.07,5.17h16.83c-1.18-6.41-4.03-11.44-8.55-15.11
			c-4.53-3.66-10.14-5.5-16.83-5.5c-5.08,0-9.61,1.06-13.58,3.19c-3.97,2.13-7.05,5.17-9.25,9.15C1.1,47.84,0,52.53,0,57.95
			C0,63.31,1.12,68,3.35,72c2.23,4.01,5.31,7.07,9.25,9.2c3.94,2.13,8.45,3.19,13.53,3.19c6.69,0,12.3-1.83,16.83-5.5
			c4.52-3.66,7.38-8.7,8.55-15.11H34.68c-0.5,2.22-1.52,3.94-3.07,5.17c-1.55,1.23-3.5,1.85-5.86,1.85c-2.79,0-5.08-1.09-6.88-3.28
			c-1.8-2.19-2.7-5.37-2.7-9.56c0-4.19,0.9-7.38,2.7-9.56C20.67,46.2,22.97,45.11,25.76,45.11z M91.4,41.51
			c-1.36-3.08-3.47-5.51-6.32-7.3c-2.85-1.79-6.26-2.68-10.23-2.68c-4.28,0-8.11,1.06-11.48,3.19c-3.38,2.13-6.04,5.17-8,9.15
			c-1.95,3.97-2.93,8.67-2.93,14.09c0,5.36,0.98,10.04,2.93,14.05c1.95,4.01,4.62,7.07,8,9.2c3.38,2.13,7.21,3.19,11.48,3.19
			c3.97,0,7.38-0.89,10.23-2.68c2.85-1.79,4.96-4.22,6.32-7.3v9.33h15.81V32.17H91.4V41.51z M88.19,67.1
			c-2.14,2.28-4.88,3.42-8.23,3.42c-3.41,0-6.15-1.11-8.23-3.33c-2.08-2.22-3.12-5.3-3.12-9.24c0-3.94,1.04-7.02,3.12-9.24
			c2.08-2.22,4.82-3.33,8.23-3.33c3.35,0,6.09,1.12,8.23,3.37c2.14,2.25,3.21,5.31,3.21,9.19C91.4,61.77,90.33,64.82,88.19,67.1z
			 M147.28,31.62c-3.66,0-7.05,0.92-10.18,2.77c-3.13,1.85-5.69,4.34-7.67,7.48v-9.7h-15.9v51.56h15.9V60.26
			c0-4.25,1.16-7.27,3.49-9.06c2.32-1.79,5.59-2.68,9.81-2.68h4.56V31.62z M186.33,34.67c-3.91-2.09-8.43-3.14-13.58-3.14
			c-5.08,0-9.61,1.06-13.58,3.19c-3.97,2.13-7.05,5.17-9.25,9.15c-2.2,3.97-3.3,8.67-3.3,14.09c0,5.36,1.12,10.04,3.35,14.05
			c2.23,4.01,5.31,7.07,9.25,9.2c3.94,2.13,8.45,3.19,13.53,3.19c4.34,0,8.28-0.82,11.81-2.45c3.53-1.63,6.45-3.88,8.74-6.75
			c2.29-2.86,3.78-6.11,4.46-9.75h-16.83c-0.5,1.85-1.52,3.36-3.07,4.53c-1.55,1.17-3.5,1.76-5.86,1.76c-2.79,0-5.08-0.85-6.88-2.54
			c-1.8-1.69-2.79-4.48-2.98-8.36h35.98c0.31-1.54,0.47-2.96,0.47-4.25c0-4.93-1.07-9.29-3.21-13.08
			C193.26,39.7,190.24,36.76,186.33,34.67z M162.25,54.17c0.25-3.33,1.33-5.85,3.25-7.58c1.92-1.72,4.34-2.59,7.25-2.59
			c2.79,0,5.13,0.85,7.02,2.54c1.89,1.7,2.8,4.24,2.74,7.62H162.25z M239.24,34.67c-3.91-2.09-8.43-3.14-13.58-3.14
			c-5.08,0-9.61,1.06-13.58,3.19c-3.97,2.13-7.05,5.17-9.25,9.15c-2.2,3.97-3.3,8.67-3.3,14.09c0,5.36,1.12,10.04,3.35,14.05
			c2.23,4.01,5.31,7.07,9.25,9.2c3.94,2.13,8.45,3.19,13.53,3.19c4.34,0,8.28-0.82,11.81-2.45c3.53-1.63,6.45-3.88,8.74-6.75
			c2.29-2.86,3.78-6.11,4.46-9.75h-16.83c-0.5,1.85-1.52,3.36-3.07,4.53c-1.55,1.17-3.5,1.76-5.86,1.76c-2.79,0-5.08-0.85-6.88-2.54
			c-1.8-1.69-2.79-4.48-2.98-8.36h35.98c0.31-1.54,0.47-2.96,0.47-4.25c0-4.93-1.07-9.29-3.21-13.08
			C246.17,39.7,243.14,36.76,239.24,34.67z M215.16,54.17c0.25-3.33,1.33-5.85,3.25-7.58c1.92-1.72,4.34-2.59,7.25-2.59
			c2.79,0,5.13,0.85,7.02,2.54c1.89,1.7,2.8,4.24,2.74,7.62H215.16z M278.71,34.39c-3.13,1.85-5.69,4.34-7.67,7.48v-9.7h-15.9v51.56
			h15.9V60.26c0-4.25,1.16-7.27,3.49-9.06c2.32-1.79,5.59-2.68,9.81-2.68l4.21-0.28V31.8C284.89,31.8,281.84,32.54,278.71,34.39z"/>
	</g>
</g>
<g>
	<path class="st0" d="M350.2,41.26c-1.36-3.11-3.45-5.56-6.29-7.37c-2.84-1.8-6.23-2.7-10.17-2.7c-4.25,0-8.06,1.07-11.42,3.22
		c-3.36,2.14-6.01,5.22-7.95,9.23c-0.25,0.51-0.48,1.03-0.69,1.57V31.84h-9.34c0.12-2.49,0.77-4.29,1.94-5.41
		c1.17-1.12,3.05-1.68,5.64-1.68l1.76,0.09V11.14c-0.74-0.06-1.85-0.09-3.33-0.09c-7.09,0-12.5,1.76-16.22,5.27
		c-3.73,3.51-5.59,8.5-5.59,14.97v0.56v13.43v38.6h15.81v-38.6h9.31c-1.46,3.65-2.19,7.84-2.19,12.59c0,5.41,0.97,10.13,2.91,14.17
		c1.94,4.04,4.59,7.13,7.95,9.28c3.36,2.14,7.16,3.22,11.42,3.22c3.94,0,7.33-0.9,10.17-2.7c2.83-1.8,4.93-4.26,6.29-7.37v9.42
		h15.71V31.84H350.2V41.26z M347.01,67.09c-2.13,2.3-4.85,3.45-8.18,3.45c-3.39,0-6.12-1.12-8.18-3.36c-2.07-2.24-3.1-5.35-3.1-9.32
		c0-3.98,1.03-7.09,3.1-9.32c2.06-2.24,4.79-3.36,8.18-3.36c3.33,0,6.05,1.13,8.18,3.4c2.13,2.27,3.19,5.36,3.19,9.28
		C350.2,61.72,349.14,64.79,347.01,67.09z"/>
	<polygon class="st0" points="392.56,10.1 382.99,8.74 378.71,0.21 374.43,8.74 364.85,10.1 371.78,16.74 370.11,26.1 379.06,21.37 
		387.23,26.1 385.62,16.74 	"/>
	<path class="st0" d="M460.2,31.28l-11.55,31.89l-12.39-31.89c-4.34,0-8.69,0-13.03,0c-0.1,0-0.19,0.01-0.27,0.04
		c-3.18,0.18-6.16,1.1-8.93,2.76c-3.11,1.86-5.65,4.38-7.63,7.55v-9.79h-15.81v52.03h15.81V60.19c0-4.29,1.16-7.33,3.47-9.14
		c2.31-1.8,5.56-2.7,9.75-2.7h4.53v-4.22c5.36,12.41,10.72,24.82,16.08,37.23c-4.04,8.92-8.07,17.84-12.11,26.76h17.38l32.17-76.84
		H460.2z"/>
	<rect x="370.35" y="31.84" class="st0" width="15.81" height="52.03"/>
</g>
</svg>
