<svg xmlns="http://www.w3.org/2000/svg" width="283" height="166" viewBox="0 0 283 166" fill="none">
  <path d="M198.389 -61.8387C203.645 -69.0605 214.862 -67.3383 217.709 -58.8724L252.655 45.0323C253.793 48.4166 256.503 51.038 259.924 52.0628L367.934 84.427C376.807 87.0857 378.622 98.851 370.962 104.06L280.435 165.624C277.342 167.727 275.53 171.258 275.624 174.998L278.338 282.499C278.567 291.559 268.355 296.993 260.968 291.742L169.023 226.374C166.189 224.359 162.568 223.803 159.259 224.875L51.9395 259.649C43.3174 262.442 35.2058 254.195 38.1421 245.621L72.9812 143.885C74.193 140.346 73.5235 136.434 71.2041 133.5L3.31525 47.6136C-2.42893 40.3466 2.83183 29.6677 12.0941 29.7933L124.839 31.3227C128.409 31.3711 131.781 29.6835 133.882 26.7965L198.389 -61.8387Z" fill="#E1DBFB"/>
</svg>