
<svg width="42" height="41" viewBox="0 0 42 41" fill="none" xmlns="http://www.w3.org/2000/svg">
<g id="star" clip-path="url(#clip0_7414_35661)">
<path id="Vector" d="M14.1448 13.3963C13.9839 12.6004 14.7884 11.9547 15.5306 12.284L20.7742 14.6111C21.0709 14.7428 21.4131 14.7223 21.6919 14.556L26.7325 11.5513C27.4559 11.1201 28.3557 11.7214 28.2341 12.5547L27.4165 18.1576C27.3674 18.494 27.4926 18.8324 27.7489 19.0558L31.9558 22.7224C32.577 23.2638 32.3136 24.2819 31.5079 24.4542L25.7271 25.6902C25.4179 25.7563 25.1581 25.9648 25.0267 26.2523L22.5689 31.6287C22.2264 32.378 21.1754 32.4148 20.7813 31.6912L18.112 26.7905C17.9493 26.4919 17.6461 26.2964 17.307 26.2716L11.6599 25.8573C10.8201 25.7957 10.4278 24.787 11.0053 24.1742L15.0296 19.9033C15.2522 19.667 15.3463 19.3374 15.282 19.0193L14.1448 13.3963Z" fill="#E1DBFB"/>
</g>
<defs>
<clipPath id="clip0_7414_35661">
<rect width="29.1944" height="27.8988" fill="white" transform="translate(0.921875 18.8223) rotate(-38.7509)"/>
</clipPath>
</defs>
</svg>