<svg width="425" height="88" viewBox="0 0 425 88" fill="none" xmlns="http://www.w3.org/2000/svg">
<g clip-path="url(#clip0_4123_307523)">
<path d="M141.121 15.7704C141.908 15.7704 142.564 15.9871 143.083 16.4171C143.601 16.8471 143.943 17.4519 144.11 18.2245H149.743C149.348 15.9837 148.394 14.2252 146.881 12.9423C145.365 11.6628 143.488 11.0195 141.249 11.0195C139.548 11.0195 138.032 11.3901 136.704 12.1347C135.375 12.8793 134.344 13.9421 133.608 15.3334C132.868 16.7248 132.5 18.3643 132.5 20.2591C132.5 22.1329 132.875 23.7724 133.621 25.1708C134.368 26.5726 135.398 27.6423 136.717 28.387C138.036 29.1316 139.545 29.5021 141.245 29.5021C143.484 29.5021 145.362 28.8624 146.878 27.5794C148.391 26.2999 149.348 24.538 149.739 22.2972H144.107C143.939 23.0733 143.598 23.6745 143.079 24.1045C142.56 24.5345 141.908 24.7513 141.118 24.7513C140.184 24.7513 139.418 24.3702 138.815 23.6046C138.213 22.839 137.912 21.7274 137.912 20.2626C137.912 18.7978 138.213 17.6826 138.815 16.9205C139.418 16.1515 140.188 15.7704 141.121 15.7704ZM163.09 14.5119C162.635 13.4352 161.928 12.5857 160.974 11.9599C160.021 11.3342 158.879 11.023 157.551 11.023C156.118 11.023 154.836 11.3936 153.709 12.1382C152.577 12.8828 151.687 13.9456 151.031 15.3369C150.379 16.7248 150.051 18.3678 150.051 20.2626C150.051 22.1364 150.379 23.7724 151.031 25.1743C151.684 26.5761 152.577 27.6458 153.709 28.3905C154.84 29.1351 156.122 29.5056 157.551 29.5056C158.879 29.5056 160.021 29.1945 160.974 28.5688C161.928 27.943 162.635 27.0935 163.09 26.0168V29.2784H168.381V11.2468H163.09V14.5119ZM162.015 23.4578C161.299 24.2549 160.382 24.6534 159.261 24.6534C158.12 24.6534 157.203 24.2653 156.507 23.4893C155.81 22.7132 155.462 21.6365 155.462 20.2591C155.462 18.8817 155.81 17.805 156.507 17.0289C157.203 16.2528 158.12 15.8648 159.261 15.8648C160.382 15.8648 161.299 16.2563 162.015 17.0429C162.732 17.8295 163.09 18.8992 163.09 20.2556C163.09 21.5945 162.732 22.6607 162.015 23.4578ZM181.792 11.0545C180.567 11.0545 179.432 11.3761 178.385 12.0228C177.337 12.6696 176.48 13.54 175.818 14.6377V11.2468H170.496V29.2714H175.818V21.0666C175.818 19.5809 176.206 18.5251 176.986 17.8994C177.762 17.2736 178.856 16.9625 180.269 16.9625H181.795V11.0545H181.792ZM194.861 12.1207C193.552 11.3901 192.039 11.023 190.316 11.023C188.616 11.023 187.1 11.3936 185.771 12.1382C184.442 12.8828 183.411 13.9456 182.675 15.3369C181.939 16.7248 181.571 18.3678 181.571 20.2626C181.571 22.1364 181.945 23.7724 182.692 25.1743C183.438 26.5761 184.469 27.6458 185.788 28.3905C187.106 29.1351 188.616 29.5056 190.316 29.5056C191.768 29.5056 193.087 29.219 194.268 28.6492C195.45 28.0793 196.427 27.2928 197.193 26.2894C197.96 25.2896 198.459 24.1535 198.686 22.881H193.053C192.886 23.5277 192.545 24.0556 192.026 24.4646C191.507 24.8736 190.855 25.0799 190.065 25.0799C189.131 25.0799 188.365 24.7827 187.762 24.1919C187.16 23.6011 186.828 22.6258 186.765 21.2694H198.807C198.91 20.731 198.964 20.2346 198.964 19.7837C198.964 18.0602 198.606 16.536 197.89 15.2111C197.18 13.8791 196.169 12.8514 194.861 12.1207ZM186.802 18.9377C186.885 17.7735 187.247 16.8926 187.889 16.2878C188.532 15.6865 189.342 15.3824 190.316 15.3824C191.25 15.3824 192.033 15.6795 192.665 16.2703C193.298 16.8646 193.602 17.7526 193.582 18.9342H186.802V18.9377ZM212.569 12.1207C211.26 11.3901 209.747 11.023 208.024 11.023C206.324 11.023 204.807 11.3936 203.479 12.1382C202.15 12.8828 201.119 13.9456 200.383 15.3369C199.647 16.7248 199.279 18.3678 199.279 20.2626C199.279 22.1364 199.653 23.7724 200.4 25.1743C201.146 26.5761 202.177 27.6458 203.495 28.3905C204.814 29.1351 206.324 29.5056 208.024 29.5056C209.476 29.5056 210.795 29.219 211.976 28.6492C213.158 28.0793 214.135 27.2928 214.901 26.2894C215.668 25.2896 216.166 24.1535 216.394 22.881H210.761C210.594 23.5277 210.253 24.0556 209.734 24.4646C209.215 24.8736 208.563 25.0799 207.773 25.0799C206.839 25.0799 206.072 24.7827 205.47 24.1919C204.868 23.6011 204.536 22.6258 204.473 21.2694H216.514C216.618 20.731 216.672 20.2346 216.672 19.7837C216.672 18.0602 216.314 16.536 215.597 15.2111C214.888 13.8791 213.874 12.8514 212.569 12.1207ZM204.51 18.9377C204.593 17.7735 204.955 16.8926 205.597 16.2878C206.24 15.6865 207.05 15.3824 208.024 15.3824C208.957 15.3824 209.741 15.6795 210.373 16.2703C211.006 16.8646 211.31 17.7526 211.29 18.9342H204.51V18.9377ZM225.778 12.0228C224.731 12.6696 223.874 13.54 223.211 14.6377V11.2468H217.89V29.2714H223.211V21.0666C223.211 19.5809 223.6 18.5251 224.379 17.8994C225.156 17.2736 226.25 16.9625 227.663 16.9625L229.072 16.8646V11.1174C227.847 11.1174 226.826 11.3761 225.778 12.0228Z" fill="#244D49"/>
<path d="M249.705 14.4243C249.25 13.3371 248.55 12.4806 247.6 11.8478C246.649 11.2186 245.514 10.9039 244.196 10.9039C242.773 10.9039 241.498 11.278 240.374 12.0296C239.249 12.7777 238.362 13.8545 237.713 15.2563C237.629 15.4346 237.552 15.6164 237.482 15.8051V11.1312H234.356C234.396 10.2607 234.614 9.63145 235.006 9.23991C235.397 8.84838 236.026 8.65261 236.893 8.65261L237.482 8.68407V3.89474C237.235 3.87377 236.863 3.86328 236.368 3.86328C233.995 3.86328 232.184 4.47855 230.939 5.7056C229.691 6.93265 229.068 8.67708 229.068 10.9389V11.1347V15.8296V29.3236H234.36V15.8296H237.475C236.987 17.1056 236.743 18.5704 236.743 20.2309C236.743 22.1222 237.067 23.7722 237.716 25.1845C238.366 26.5969 239.253 27.6771 240.377 28.4287C241.502 29.1768 242.773 29.5544 244.199 29.5544C245.518 29.5544 246.652 29.2397 247.603 28.6105C248.55 27.9812 249.253 27.1212 249.708 26.034V29.3271H254.966V11.1312H249.705V14.4243ZM248.637 23.4541C247.924 24.2581 247.014 24.6602 245.899 24.6602C244.765 24.6602 243.851 24.2686 243.162 23.4855C242.469 22.7025 242.124 21.6153 242.124 20.2274C242.124 18.8361 242.469 17.7488 243.162 16.9693C243.851 16.1862 244.765 15.7947 245.899 15.7947C247.014 15.7947 247.924 16.1897 248.637 16.9832C249.35 17.7768 249.705 18.857 249.705 20.2274C249.705 21.5768 249.35 22.65 248.637 23.4541Z" fill="#244D49"/>
<path d="M263.882 3.53162L260.679 3.05619L259.247 0.0742188L257.815 3.05619L254.608 3.53162L256.928 5.85288L256.369 9.125L259.364 7.47146L262.099 9.125L261.56 5.85288L263.882 3.53162Z" fill="#244D49"/>
<path d="M286.52 10.9375L282.654 22.0858L278.507 10.9375C277.055 10.9375 275.599 10.9375 274.147 10.9375C274.113 10.9375 274.083 10.941 274.056 10.9515C272.992 11.0144 271.995 11.336 271.068 11.9163C270.027 12.5666 269.177 13.4475 268.514 14.5557V11.1333H263.223V29.3222H268.514V21.044C268.514 19.5443 268.902 18.4816 269.675 17.8488C270.448 17.2196 271.536 16.9049 272.938 16.9049H274.454V15.4297C276.248 19.768 278.042 24.1064 279.836 28.4448C278.484 31.5631 277.135 34.6814 275.783 37.7997H281.6L292.367 10.9375H286.52V10.9375Z" fill="#244D49"/>
<path d="M261.74 11.1328H256.448V29.3218H261.74V11.1328Z" fill="#244D49"/>
</g>
<path d="M60.6775 47.248L53.6699 87.3397H47.1737L51.9595 59.8811L35.0947 87.3397H30.5945L23.2448 59.8811L18.459 87.3397H11.9629L18.9705 47.248H25.9782L34.4106 78.6878L53.7263 47.248H60.6775Z" fill="#244D49"/>
<path d="M85.561 79.149H68.9817L64.7075 87.3402H57.9258L79.1213 47.1914H86.6436L93.8239 87.3402H86.9857L85.561 79.149ZM84.7042 74.0145L81.4562 55.1506L71.6555 74.0145H84.7042Z" fill="#244D49"/>
<path d="M104.371 86.5603C102.434 85.7723 100.897 84.619 99.7543 83.1002C98.6151 81.5814 98.0439 79.7831 98.0439 77.7051C98.0439 77.4382 98.0816 76.9552 98.1569 76.2626H104.597C104.443 78.0323 104.957 79.5035 106.134 80.6759C107.311 81.8483 109.003 82.4361 111.206 82.4361C113.559 82.4361 115.401 81.9468 116.732 80.965C118.063 79.9832 118.725 78.5693 118.725 76.7265C118.725 75.6112 118.392 74.6612 117.727 73.87C117.062 73.0821 116.227 72.418 115.219 71.881C114.212 71.3441 112.816 70.7086 111.033 69.9778C108.676 68.9769 106.796 68.0746 105.394 67.2675C103.988 66.4605 102.783 65.3452 101.775 63.9218C100.768 62.4984 100.266 60.7127 100.266 58.5585C100.266 56.1755 100.871 54.088 102.089 52.2991C103.304 50.5103 104.986 49.1377 107.132 48.1749C109.279 47.2154 111.698 46.7324 114.397 46.7324C117.096 46.7324 119.422 47.1836 121.377 48.0891C123.332 48.9947 124.813 50.2624 125.82 51.8956C126.828 53.5319 127.273 55.4447 127.16 57.6339H120.322C120.473 56.0579 119.999 54.7393 118.897 53.6813C117.796 52.6232 116.199 52.0958 114.112 52.0958C111.909 52.0958 110.151 52.6073 108.843 53.6241C107.531 54.644 106.878 56.0166 106.878 57.7482C106.878 58.8254 107.211 59.7595 107.876 60.5475C108.541 61.3355 109.385 62.009 110.412 62.5651C111.438 63.1243 112.825 63.7852 114.57 64.5541C116.923 65.6312 118.816 66.5939 120.237 67.4391C121.662 68.2843 122.886 69.4281 123.912 70.8706C124.939 72.3131 125.45 74.0924 125.45 76.2054C125.45 78.4359 124.841 80.4281 123.627 82.1756C122.409 83.9263 120.702 85.2894 118.499 86.2712C116.296 87.253 113.77 87.7423 110.92 87.7423C108.488 87.7423 106.304 87.3483 104.367 86.5603H104.371Z" fill="#244D49"/>
<path d="M160.106 47.248L159.196 52.3826H148.654L142.557 87.3397H136.061L142.158 52.3826H131.561L132.471 47.248H160.103H160.106Z" fill="#244D49"/>
<path d="M170.13 52.3248L168.021 64.4971H181.694L180.84 69.5745H167.167L164.945 82.2076H180.329L179.419 87.3422H157.539L164.547 47.1934H186.426L185.516 52.3279H170.133L170.13 52.3248Z" fill="#244D49"/>
<path d="M215.071 49.9583C217.124 51.7662 218.147 54.1111 218.147 56.9961C218.147 57.495 218.072 58.2448 217.918 59.2457C217.463 61.8225 216.295 64.1864 214.412 66.3407C212.533 68.4949 209.978 69.9565 206.749 70.7254L213.644 87.3397H205.895L199.628 71.3036H194.613L191.82 87.3397H185.324L192.332 47.248H206.005C209.994 47.248 213.013 48.1536 215.065 49.9583H215.071ZM211.425 57.5744C211.425 55.9222 210.901 54.6417 209.859 53.7393C208.814 52.837 207.229 52.3826 205.101 52.3826H197.921L195.527 66.1119H202.707C205.136 66.1119 207.085 65.4955 208.547 64.2659C210.009 63.0362 210.91 61.3618 211.252 59.2457C211.365 58.6674 211.422 58.1114 211.422 57.5712L211.425 57.5744Z" fill="#244D49"/>
<path d="M237.746 56.217C239.949 53.0842 242.72 50.6408 246.065 48.8901C249.407 47.1394 253.054 46.2656 257.005 46.2656C260.31 46.2656 263.197 46.882 265.666 48.1117C268.136 49.3445 270.054 51.092 271.422 53.3606C272.79 55.6292 273.531 58.3014 273.644 61.3802H261.621C261.166 59.8805 260.369 58.7271 259.23 57.9201C258.091 57.113 256.685 56.7095 255.012 56.7095C252.429 56.7095 250.208 57.631 248.347 59.477C246.486 61.323 245.287 63.8045 244.756 66.9183C244.603 67.7253 244.527 68.5928 244.527 69.5142C244.527 71.9004 245.146 73.775 246.379 75.1381C247.612 76.5043 249.313 77.1874 251.479 77.1874C253.148 77.1874 254.698 76.7839 256.123 75.9769C257.548 75.1698 258.734 74.0165 259.685 72.5168H271.764C269.941 77.1716 267.072 80.8541 263.159 83.5644C259.246 86.2746 254.783 87.6313 249.768 87.6313C246.313 87.6313 243.319 86.9577 240.796 85.6137C238.27 84.2665 236.343 82.3633 235.012 79.9041C233.682 77.4448 233.02 74.5979 233.02 71.3666C233.02 69.8669 233.151 68.3862 233.418 66.9247C234.102 62.9244 235.546 59.3594 237.749 56.2234L237.746 56.217Z" fill="#244D49"/>
<path d="M286.733 78.7451H299.21L297.673 87.3398H273.97L281.09 46.6699H292.256L286.73 78.7451H286.733Z" fill="#244D49"/>
<path d="M328.976 80.7055H314.732L311.427 87.3398H299.69L321.398 46.6699H334.274L341.796 87.3398H330.003L328.976 80.7055ZM327.665 72.1108L325.672 58.8995L319.063 72.1108H327.668H327.665Z" fill="#244D49"/>
<path d="M348.588 84.8324C345.757 82.891 344.342 80.0537 344.342 76.3235C344.342 76.0153 344.379 75.4783 344.455 74.7094H356.248C356.135 76.0184 356.399 77.0352 357.045 77.766C357.692 78.4968 358.677 78.8622 360.008 78.8622C361.109 78.8622 361.991 78.6111 362.656 78.1123C363.322 77.6135 363.654 76.9017 363.654 75.9771C363.654 74.9 363.171 74.0167 362.201 73.3241C361.232 72.6314 359.666 71.8244 357.5 70.8998C355.335 69.9752 353.549 69.1014 352.143 68.2753C350.737 67.4492 349.523 66.3149 348.497 64.8724C347.471 63.4298 346.959 61.6315 346.959 59.4772C346.959 56.6716 347.643 54.2569 349.011 52.2361C350.38 50.2153 352.288 48.6807 354.739 47.6226C357.19 46.5645 359.989 46.0371 363.143 46.0371C365.992 46.0371 368.519 46.4883 370.722 47.3938C372.925 48.2994 374.644 49.5957 375.878 51.2861C377.111 52.9796 377.729 54.9781 377.729 57.2849C377.729 57.9013 377.711 58.362 377.673 58.6702H365.65C365.688 58.4796 365.707 58.2095 365.707 57.8632C365.707 56.9417 365.421 56.2205 364.853 55.6994C364.282 55.1815 363.504 54.9209 362.518 54.9209C361.533 54.9209 360.667 55.1815 360.039 55.6994C359.412 56.2173 359.098 56.9385 359.098 57.8632C359.098 58.864 359.581 59.7187 360.551 60.4304C361.52 61.1422 363.03 61.9778 365.079 62.9405C367.282 63.9795 369.096 64.9518 370.521 65.8541C371.946 66.7597 373.17 67.9607 374.196 69.4604C375.222 70.9601 375.733 72.8062 375.733 74.9985C375.733 77.4228 375.087 79.6057 373.797 81.547C372.504 83.4884 370.662 85.0071 368.271 86.1033C365.879 87.1995 363.049 87.746 359.782 87.746C355.147 87.746 351.415 86.7769 348.585 84.8324H348.588Z" fill="#244D49"/>
<path d="M383.786 84.8324C380.955 82.891 379.54 80.0537 379.54 76.3235C379.54 76.0153 379.578 75.4783 379.653 74.7094H391.446C391.333 76.0184 391.597 77.0352 392.244 77.766C392.89 78.4968 393.875 78.8622 395.206 78.8622C396.308 78.8622 397.189 78.6111 397.855 78.1123C398.52 77.6135 398.853 76.9017 398.853 75.9771C398.853 74.9 398.369 74.0167 397.4 73.3241C396.43 72.6314 394.864 71.8244 392.699 70.8998C390.533 69.9752 388.748 69.1014 387.342 68.2753C385.936 67.4492 384.721 66.3149 383.695 64.8724C382.669 63.4298 382.157 61.6315 382.157 59.4772C382.157 56.6716 382.841 54.2569 384.21 52.2361C385.578 50.2153 387.486 48.6807 389.937 47.6226C392.388 46.5645 395.187 46.0371 398.341 46.0371C401.191 46.0371 403.717 46.4883 405.92 47.3938C408.123 48.2994 409.843 49.5957 411.076 51.2861C412.309 52.9796 412.928 54.9781 412.928 57.2849C412.928 57.9013 412.909 58.362 412.871 58.6702H400.849C400.886 58.4796 400.905 58.2095 400.905 57.8632C400.905 56.9417 400.619 56.2205 400.051 55.6994C399.48 55.1815 398.702 54.9209 397.717 54.9209C396.731 54.9209 395.865 55.1815 395.237 55.6994C394.61 56.2173 394.296 56.9385 394.296 57.8632C394.296 58.864 394.779 59.7187 395.749 60.4304C396.719 61.1422 398.228 61.9778 400.277 62.9405C402.48 63.9795 404.294 64.9518 405.719 65.8541C407.144 66.7597 408.368 67.9607 409.394 69.4604C410.42 70.9601 410.932 72.8062 410.932 74.9985C410.932 77.4228 410.285 79.6057 408.995 81.547C407.702 83.4884 405.86 85.0071 403.469 86.1033C401.078 87.1995 398.247 87.746 394.98 87.746C390.345 87.746 386.614 86.7769 383.783 84.8324H383.786Z" fill="#244D49"/>
<defs>
<clipPath id="clip0_4123_307523">
<rect width="160" height="38" fill="white" transform="translate(132.5)"/>
</clipPath>
</defs>
</svg>
