<svg xmlns="http://www.w3.org/2000/svg" width="48" height="48" viewBox="0 0 48 48" fill="none">
  <g clip-path="url(#clip0_2241_43600)">
    <path d="M23.3494 0C23.7869 0 24.2244 0 24.6619 0C29.7663 0.195625 34.3316 1.79156 38.3578 4.78781C38.8622 5.16344 39.3478 5.55687 39.8147 5.96812C41.2841 7.26062 42.5612 8.68344 43.6462 10.2366C46.4006 14.1772 47.8519 18.5872 48 23.4666C48 23.8497 48 24.2325 48 24.615C47.7431 30.8263 45.5225 36.1384 41.3381 40.5516C40.9069 41.0066 40.4584 41.4416 39.9928 41.8566C35.6709 45.7097 30.5569 47.7575 24.6506 48C24.2288 48 23.8069 48 23.385 48C19.9625 47.8925 16.7553 47.125 13.7634 45.6975C9.74531 43.78 6.49281 40.9647 4.00594 37.2516C3.65469 36.7272 3.32906 36.1937 3.02906 35.6512C1.15406 32.2656 0.144375 28.6144 0 24.6975C0 24.2519 0 23.8066 0 23.3616C0.23375 17.3878 2.32156 12.2197 6.26344 7.85719C8.04281 5.88781 10.1425 4.2375 12.5625 2.90625C15.8456 1.09938 19.4412 0.130625 23.3494 0ZM20.2219 19.9163L17.5959 19.9219C17.5788 19.9219 17.5623 19.9286 17.5502 19.9405C17.5381 19.9525 17.5312 19.9687 17.5312 19.9856V24.7716C17.5312 24.7892 17.5382 24.8061 17.5505 24.8186C17.5628 24.8311 17.5795 24.8381 17.5969 24.8381L20.2106 24.8438C20.2189 24.8438 20.227 24.8454 20.2347 24.8485C20.2423 24.8516 20.2492 24.8561 20.255 24.8619C20.2609 24.8676 20.2655 24.8744 20.2687 24.8819C20.2718 24.8895 20.2734 24.8975 20.2734 24.9056V38.6841C20.2734 38.7057 20.282 38.7264 20.2973 38.7417C20.3126 38.757 20.3334 38.7656 20.355 38.7656H25.9997C26.0079 38.7656 26.0161 38.764 26.0237 38.7608C26.0313 38.7577 26.0383 38.7531 26.0441 38.7472C26.0499 38.7414 26.0546 38.7345 26.0577 38.7268C26.0609 38.7192 26.0625 38.7111 26.0625 38.7028V24.9141C26.0625 24.8969 26.0692 24.8805 26.0812 24.8683C26.0931 24.8562 26.1093 24.8494 26.1262 24.8494L29.9128 24.8438C29.9279 24.8438 29.9425 24.8383 29.9537 24.8283C29.965 24.8182 29.9721 24.8044 29.9738 24.7894L30.4697 19.9819C30.4705 19.9743 30.4697 19.9666 30.4673 19.9593C30.4649 19.9521 30.461 19.9454 30.4559 19.9397C30.4508 19.9341 30.4445 19.9296 30.4375 19.9265C30.4305 19.9234 30.423 19.9218 30.4153 19.9219L26.1272 19.905C26.1146 19.905 26.1025 19.8999 26.0934 19.8908C26.0843 19.8817 26.0789 19.8693 26.0784 19.8563C26.0528 18.9688 26.0506 18.0816 26.0719 17.1947C26.0825 16.7603 26.1394 16.4472 26.2425 16.2553C26.44 15.8872 26.7784 15.7031 27.2578 15.7031C28.2578 15.7031 29.2772 15.7031 30.3159 15.7031C30.3378 15.7031 30.3588 15.6944 30.3743 15.679C30.3897 15.6635 30.3984 15.6425 30.3984 15.6206V10.9866C30.3984 10.9694 30.3916 10.953 30.3795 10.9408C30.3674 10.9287 30.3509 10.9219 30.3337 10.9219C29.0175 10.9306 27.7031 10.9263 26.3906 10.9088C25.6712 10.8994 25.0325 10.9525 24.4744 11.0681C22.7306 11.43 21.5097 12.4403 20.8116 14.0991C20.5009 14.8372 20.3294 15.5437 20.2969 16.2188C20.2712 16.7463 20.2616 17.9631 20.2678 19.8694C20.2678 19.8818 20.263 19.8937 20.2544 19.9025C20.2457 19.9113 20.2341 19.9163 20.2219 19.9163Z" fill="#1D71ED"/>
  </g>
  <defs>
    <clipPath id="clip0_2241_43600">
      <rect width="48" height="48" fill="white"/>
    </clipPath>
  </defs>
</svg>