<svg xmlns="http://www.w3.org/2000/svg" width="49" height="48" viewBox="0 0 49 48" fill="none">
  <g clip-path="url(#clip0_2241_43780)">
    <path d="M23.8494 0C24.2869 0 24.7244 0 25.1619 0C30.8412 0.225 35.8056 2.13781 40.055 5.73844C40.5294 6.14031 40.9881 6.56469 41.4313 7.01156C45.8638 11.4753 48.22 16.9212 48.5 23.3494C48.5 23.7712 48.5 24.1931 48.5 24.615C48.3838 28.2463 47.5459 31.6097 45.9866 34.7053C43.7872 39.0703 40.5459 42.4747 36.2628 44.9184C35.7109 45.2328 35.155 45.5187 34.595 45.7762C31.6131 47.1481 28.465 47.8894 25.1506 48C24.7288 48 24.3069 48 23.885 48C19.2781 47.8506 15.1178 46.5519 11.4041 44.1038C7.61719 41.6069 4.75781 38.3413 2.82594 34.3069C1.39281 31.3131 0.6175 28.11 0.5 24.6975C0.5 24.2519 0.5 23.8066 0.5 23.3616C0.594375 20.3891 1.16656 17.6272 2.21656 15.0759C4.25781 10.1184 7.51969 6.26312 12.0022 3.51C15.5741 1.31562 19.5231 0.145625 23.8494 0ZM16.3316 10.6153C15.9916 10.4347 15.6128 10.3181 15.1953 10.2656C14.7272 10.2069 14.2787 10.2188 13.85 10.3012C13.405 10.3869 12.9969 10.5534 12.6256 10.8009C11.9256 11.2672 11.5125 11.9147 11.3863 12.7434C11.2987 13.3197 11.3494 13.8641 11.5381 14.3766C11.7437 14.9353 12.0975 15.3834 12.5994 15.7209C13.3938 16.2541 14.3059 16.42 15.3359 16.2188C16.2078 16.0481 16.8697 15.6541 17.3216 15.0366C17.6909 14.5322 17.8834 13.9484 17.8991 13.2853C17.9166 12.5666 17.6919 11.9244 17.225 11.3588C16.9619 11.04 16.6641 10.7922 16.3316 10.6153ZM26.6131 20.9428L26.6094 18.7791C26.6094 18.7589 26.6013 18.7396 26.5869 18.7254C26.5724 18.7111 26.5529 18.7031 26.5325 18.7031L20.8259 18.6863C20.8135 18.6863 20.8016 18.6912 20.7928 18.7C20.784 18.7088 20.7791 18.7207 20.7791 18.7331C20.8041 24.5725 20.7966 30.4028 20.7566 36.2241C20.7564 36.2315 20.7578 36.2389 20.7606 36.2459C20.7633 36.2528 20.7675 36.2591 20.7727 36.2644C20.7779 36.2698 20.7842 36.274 20.7911 36.2769C20.798 36.2798 20.8053 36.2812 20.8128 36.2812H26.5091C26.5223 36.2812 26.5354 36.2786 26.5477 36.2736C26.5599 36.2685 26.571 36.2611 26.5803 36.2518C26.5897 36.2425 26.597 36.2314 26.602 36.2193C26.607 36.2071 26.6095 36.1941 26.6094 36.1809C26.5981 32.8591 26.6044 29.5631 26.6281 26.2931C26.6319 25.8275 26.6756 25.4597 26.7594 25.1897C26.9525 24.5684 27.295 24.0487 27.7869 23.6306C28.5406 22.9906 29.4294 22.7694 30.4531 22.9669C31.2819 23.1269 31.8738 23.5591 32.2288 24.2634C32.5875 24.9759 32.7656 25.7866 32.7631 26.6953C32.7544 29.8278 32.75 32.9978 32.75 36.2053C32.75 36.2153 32.752 36.2252 32.7558 36.2344C32.7596 36.2436 32.7652 36.252 32.7722 36.259C32.7793 36.2661 32.7877 36.2717 32.7969 36.2755C32.8061 36.2793 32.816 36.2812 32.8259 36.2812H38.5166C38.541 36.2812 38.5645 36.2716 38.5819 36.2544C38.5992 36.2372 38.6091 36.2138 38.6094 36.1894C38.6206 32.6956 38.6128 29.2262 38.5859 25.7812C38.5759 24.4975 38.3394 23.29 37.8763 22.1588C37.6181 21.53 37.31 20.9887 36.9519 20.535C36.2369 19.6312 35.3266 18.9991 34.2209 18.6384C33.2341 18.3166 32.2087 18.2106 31.145 18.3206C30.4631 18.3913 29.8594 18.5422 29.3337 18.7734C28.3263 19.2166 27.4644 19.9538 26.7481 20.985C26.6588 21.1138 26.6138 21.0997 26.6131 20.9428ZM17.5166 18.7322C17.5166 18.724 17.5133 18.7161 17.5075 18.7103C17.5017 18.7045 17.4938 18.7013 17.4856 18.7013H11.7106C11.7024 18.7013 11.6946 18.7045 11.6887 18.7103C11.6829 18.7161 11.6797 18.724 11.6797 18.7322V36.2503C11.6797 36.2585 11.6829 36.2664 11.6887 36.2722C11.6946 36.278 11.7024 36.2812 11.7106 36.2812H17.4856C17.4938 36.2812 17.5017 36.278 17.5075 36.2722C17.5133 36.2664 17.5166 36.2585 17.5166 36.2503V18.7322Z" fill="#1465C4"/>
  </g>
  <defs>
    <clipPath id="clip0_2241_43780">
      <rect width="48" height="48" fill="white" transform="translate(0.5)"/>
    </clipPath>
  </defs>
</svg>