<?xml version="1.0" encoding="UTF-8"?>
<svg id="Layer_2" data-name="Layer 2" xmlns="http://www.w3.org/2000/svg" viewBox="0 0 43 43">
  <defs>
    <style>
      .cls-1 {
        fill: #2abaa5;
        stroke-width: 0px;
      }
    </style>
  </defs>
  <g id="Layer_1-2" data-name="Layer 1">
    <g>
      <path class="cls-1" d="M2,43c-.26,0-.52-.05-.76-.15-.75-.31-1.23-1.04-1.23-1.85V6.33c0-1.69.66-3.28,1.85-4.48C3.05.66,4.64,0,6.33,0h30.33c1.67,0,3.3.68,4.48,1.85,1.2,1.2,1.86,2.79,1.86,4.48v21.67c0,1.69-.66,3.28-1.86,4.48-1.19,1.2-2.79,1.85-4.48,1.85H11.5s-8.08,8.08-8.08,8.08c-.38.38-.89.59-1.41.59ZM6.33,4c-.62,0-1.21.24-1.65.68-.44.44-.68,1.03-.68,1.65v29.84l5.25-5.25c.38-.38.88-.59,1.41-.59h26c.61,0,1.22-.25,1.65-.68.44-.44.68-1.03.68-1.65V6.33c0-.62-.24-1.21-.68-1.65-.43-.43-1.04-.68-1.65-.68H6.33Z"/>
      <g>
        <path class="cls-1" d="M21.38,19.72c-.58,0-1.13-.37-1.32-.95-.24-.73.15-1.52.88-1.76.83-.28,3.23-1.42,3.23-2.86,0-.66-.23-1.3-.66-1.8-.42-.5-1.01-.84-1.66-.95-.65-.11-1.31.01-1.88.34-.57.33-1,.86-1.22,1.48-.25.73-1.05,1.11-1.78.85-.73-.26-1.11-1.05-.85-1.78.44-1.24,1.3-2.29,2.43-2.96,1.13-.67,2.47-.91,3.76-.69,1.3.22,2.48.9,3.32,1.9.85,1.01,1.31,2.28,1.31,3.6,0,3.68-4.61,5.32-5.13,5.5-.15.05-.3.07-.44.07Z"/>
        <path class="cls-1" d="M21.51,24.29c-.77,0-1.4-.62-1.4-1.39s.62-1.39,1.39-1.39h.01c.77,0,1.39.62,1.39,1.39s-.62,1.39-1.39,1.39Z"/>
      </g>
    </g>
  </g>
</svg>