<svg xmlns="http://www.w3.org/2000/svg" width="36" height="36" viewBox="0 0 36 36" fill="current">
  <g clip-path="url(#clip0_12753_127706)">
    <path d="M17.758 5.21057L17.5143 4.77623L17.758 5.21057C17.9099 5.12532 18.0953 5.12532 18.2473 5.21057L33.2889 13.6495C33.4466 13.738 33.5443 13.9048 33.5443 14.0856V24.5C33.5443 24.7761 33.3204 25 33.0443 25H32.1276C31.8515 25 31.6276 24.7761 31.6276 24.5V16.8428C31.6276 15.6963 30.3934 14.9736 29.3936 15.5347L18.2472 21.7894C18.0953 21.8747 17.9099 21.8747 17.7579 21.7894L3.76006 13.9361C3.41959 13.745 3.41958 13.255 3.76006 13.0639L17.758 5.21057ZM8.29427 21.4781C8.29427 21.0959 8.70571 20.855 9.03901 21.0421L17.2684 25.6613C17.7244 25.9172 18.2808 25.9172 18.7368 25.6613L26.9662 21.0421C27.2995 20.855 27.7109 21.0959 27.7109 21.4781V25.1845C27.7109 25.3653 27.6133 25.5321 27.4557 25.6206L18.2473 30.7892C18.0953 30.8746 17.9099 30.8746 17.7579 30.7892L8.54954 25.6206C8.39187 25.5321 8.29427 25.3653 8.29427 25.1845V21.4781Z" fill="current" stroke="current"/>
  </g>
  <defs>
    <clipPath id="clip0_12753_127706">
      <rect width="35" height="36" fill="white" transform="translate(0.5)"/>
    </clipPath>
  </defs>
</svg>