<svg xmlns="http://www.w3.org/2000/svg" width="16" height="16" viewBox="0 0 16 16" fill="none">
  <path d="M8 9.75C8.9665 9.75 9.75 8.9665 9.75 8C9.75 7.0335 8.9665 6.25 8 6.25C7.0335 6.25 6.25 7.0335 6.25 8C6.25 8.9665 7.0335 9.75 8 9.75Z" stroke="#6B6B7F" stroke-width="1.5" stroke-linecap="round" stroke-linejoin="round"/>
  <path d="M12.3173 9.75065C12.2397 9.92659 12.2165 10.1218 12.2508 10.311C12.2851 10.5002 12.3753 10.6748 12.5098 10.8123L12.5448 10.8473C12.6533 10.9557 12.7393 11.0843 12.7981 11.226C12.8568 11.3676 12.887 11.5194 12.887 11.6727C12.887 11.8261 12.8568 11.9779 12.7981 12.1195C12.7393 12.2611 12.6533 12.3898 12.5448 12.4982C12.4365 12.6066 12.3078 12.6927 12.1662 12.7514C12.0245 12.8101 11.8727 12.8403 11.7194 12.8403C11.5661 12.8403 11.4143 12.8101 11.2726 12.7514C11.131 12.6927 11.0023 12.6066 10.894 12.4982L10.859 12.4632C10.7215 12.3287 10.5469 12.2385 10.3577 12.2041C10.1684 12.1698 9.97326 12.193 9.79732 12.2707C9.62479 12.3446 9.47764 12.4674 9.374 12.6239C9.27035 12.7804 9.21473 12.9638 9.21398 13.1515V13.2507C9.21398 13.5601 9.09107 13.8568 8.87228 14.0756C8.65348 14.2944 8.35674 14.4173 8.04732 14.4173C7.7379 14.4173 7.44115 14.2944 7.22236 14.0756C7.00357 13.8568 6.88065 13.5601 6.88065 13.2507V13.1982C6.87614 13.0051 6.81364 12.8178 6.70128 12.6607C6.58893 12.5036 6.43191 12.384 6.25065 12.3173C6.07471 12.2397 5.87954 12.2165 5.69031 12.2508C5.50108 12.2851 5.32646 12.3753 5.18898 12.5098L5.15398 12.5448C5.04563 12.6533 4.91696 12.7393 4.77533 12.7981C4.6337 12.8568 4.48189 12.887 4.32857 12.887C4.17525 12.887 4.02344 12.8568 3.8818 12.7981C3.74017 12.7393 3.6115 12.6533 3.50315 12.5448C3.39468 12.4365 3.30863 12.3078 3.24991 12.1662C3.1912 12.0245 3.16098 11.8727 3.16098 11.7194C3.16098 11.5661 3.1912 11.4143 3.24991 11.2726C3.30863 11.131 3.39468 11.0023 3.50315 10.894L3.53815 10.859C3.67263 10.7215 3.76284 10.5469 3.79715 10.3577C3.83146 10.1684 3.8083 9.97326 3.73065 9.79732C3.65671 9.62479 3.53393 9.47764 3.37742 9.374C3.22092 9.27035 3.03753 9.21473 2.84982 9.21398H2.75065C2.44123 9.21398 2.14449 9.09107 1.92569 8.87228C1.7069 8.65348 1.58398 8.35674 1.58398 8.04732C1.58398 7.7379 1.7069 7.44115 1.92569 7.22236C2.14449 7.00357 2.44123 6.88065 2.75065 6.88065H2.80315C2.99623 6.87614 3.18349 6.81364 3.34058 6.70128C3.49766 6.58893 3.61732 6.43191 3.68398 6.25065C3.76163 6.07471 3.7848 5.87954 3.75049 5.69031C3.71618 5.50108 3.62596 5.32646 3.49148 5.18898L3.45648 5.15398C3.34801 5.04563 3.26196 4.91696 3.20325 4.77533C3.14454 4.6337 3.11432 4.48189 3.11432 4.32857C3.11432 4.17525 3.14454 4.02344 3.20325 3.8818C3.26196 3.74017 3.34801 3.6115 3.45648 3.50315C3.56484 3.39468 3.69351 3.30863 3.83514 3.24991C3.97677 3.1912 4.12858 3.16098 4.2819 3.16098C4.43522 3.16098 4.58703 3.1912 4.72866 3.24991C4.8703 3.30863 4.99897 3.39468 5.10732 3.50315L5.14232 3.53815C5.2798 3.67263 5.45441 3.76284 5.64364 3.79715C5.83287 3.83146 6.02804 3.8083 6.20398 3.73065H6.25065C6.42318 3.65671 6.57033 3.53393 6.67397 3.37742C6.77762 3.22092 6.83324 3.03753 6.83398 2.84982V2.75065C6.83398 2.44123 6.9569 2.14449 7.17569 1.92569C7.39449 1.7069 7.69123 1.58398 8.00065 1.58398C8.31007 1.58398 8.60682 1.7069 8.82561 1.92569C9.0444 2.14449 9.16732 2.44123 9.16732 2.75065V2.80315C9.16807 2.99086 9.22369 3.17425 9.32733 3.33076C9.43097 3.48726 9.57812 3.61004 9.75065 3.68398C9.92659 3.76163 10.1218 3.7848 10.311 3.75049C10.5002 3.71618 10.6748 3.62596 10.8123 3.49148L10.8473 3.45648C10.9557 3.34801 11.0843 3.26196 11.226 3.20325C11.3676 3.14454 11.5194 3.11432 11.6727 3.11432C11.8261 3.11432 11.9779 3.14454 12.1195 3.20325C12.2611 3.26196 12.3898 3.34801 12.4982 3.45648C12.6066 3.56484 12.6927 3.69351 12.7514 3.83514C12.8101 3.97677 12.8403 4.12858 12.8403 4.2819C12.8403 4.43522 12.8101 4.58703 12.7514 4.72866C12.6927 4.8703 12.6066 4.99897 12.4982 5.10732L12.4632 5.14232C12.3287 5.2798 12.2385 5.45441 12.2041 5.64364C12.1698 5.83287 12.193 6.02804 12.2707 6.20398V6.25065C12.3446 6.42318 12.4674 6.57033 12.6239 6.67397C12.7804 6.77762 12.9638 6.83324 13.1515 6.83398H13.2507C13.5601 6.83398 13.8568 6.9569 14.0756 7.17569C14.2944 7.39449 14.4173 7.69123 14.4173 8.00065C14.4173 8.31007 14.2944 8.60682 14.0756 8.82561C13.8568 9.0444 13.5601 9.16732 13.2507 9.16732H13.1982C13.0104 9.16807 12.827 9.22369 12.6705 9.32733C12.514 9.43097 12.3913 9.57812 12.3173 9.75065V9.75065Z" stroke="#6B6B7F" stroke-width="1.5" stroke-linecap="round" stroke-linejoin="round"/>
</svg>