<svg width="109" height="68" viewBox="0 0 109 68" fill="none" xmlns="http://www.w3.org/2000/svg">
<path d="M92.2788 34.5027C92.2788 27.1045 86.2925 21.103 78.9042 21.103C77.1001 21.103 75.378 21.463 73.8082 22.1124C72.3243 9.65951 61.7535 0 48.9217 0C35.0707 0 23.8439 11.2479 23.8439 25.1249C23.8439 25.6648 23.8673 26.2008 23.9024 26.7329C20.8878 28.0161 18.7713 31.0129 18.7713 34.5027H16.7212C7.48587 34.5027 0 42.0026 0 51.2514C0 60.5001 7.48587 68 16.7173 68H45.7587V47.0887H39.6903C38.7609 47.0887 38.2611 46.001 38.8586 45.2929L53.6663 27.7188C54.1036 27.2023 54.8964 27.2023 55.3337 27.7188L70.1414 45.2929C70.7389 46.001 70.2352 47.0887 69.3097 47.0887H63.2413V68H92.2827C101.514 68 109 60.5001 109 51.2514C109 42.0026 101.514 34.5027 92.2827 34.5027H92.2788Z" fill="#6749EA"/>
</svg>
