<svg xmlns="http://www.w3.org/2000/svg" width="49" height="48" viewBox="0 0 49 48" fill="none">
  <g clip-path="url(#clip0_2241_43768)">
    <path d="M23.99 0C24.3806 0 24.7712 0 25.1619 0C30.6912 0.215625 35.5547 2.0425 39.7522 5.48063C40.2347 5.87625 40.7009 6.29188 41.1509 6.7275C44.8891 10.3506 47.2216 14.7331 48.1484 19.875C48.3328 20.8962 48.45 22.0934 48.5 23.4666C48.5 23.7872 48.5 24.1075 48.5 24.4275C48.3331 29.9431 46.5616 34.8156 43.1853 39.045C42.7928 39.5375 42.3831 40.0094 41.9563 40.4606C39.35 43.2169 36.2794 45.2438 32.7444 46.5413C30.3219 47.43 27.7594 47.9162 25.0569 48C24.6975 48 24.3381 48 23.9788 48C21.385 47.9244 18.9278 47.4772 16.6072 46.6584C11.8309 44.9722 7.9625 42.08 5.00187 37.9819C4.63312 37.4706 4.28906 36.9494 3.96969 36.4181C1.80156 32.8094 0.645 28.8713 0.5 24.6038C0.5 24.1894 0.5 23.7753 0.5 23.3616C0.55 22.0784 0.675 20.8928 0.875 19.8047C1.78813 14.8353 4.01281 10.5756 7.54906 7.02563C9.60344 4.96313 11.9756 3.32875 14.6656 2.1225C17.6275 0.79375 20.7356 0.08625 23.99 0ZM12.8609 35.9222C12.9703 35.9947 13.0894 36.0156 13.2181 35.985L19.1572 34.5806C19.187 34.5739 19.2182 34.5772 19.2463 34.59C22.2 35.9688 25.1947 36.1675 28.2303 35.1862C28.8328 34.9919 29.4091 34.7528 29.9591 34.4691C32.0303 33.3991 33.6403 31.8625 34.7891 29.8594C36.3816 27.0831 36.8009 24.1419 36.0472 21.0356C35.8978 20.4181 35.7028 19.8256 35.4622 19.2581C34.5316 17.06 33.0747 15.3028 31.0916 13.9866C28.9134 12.5409 26.5116 11.8837 23.8859 12.015C23.2528 12.0469 22.6341 12.1269 22.0297 12.255C20.5516 12.57 19.1972 13.1353 17.9666 13.9509C15.9597 15.2822 14.4859 17.0531 13.5453 19.2638C13.3016 19.8369 13.1059 20.4297 12.9584 21.0422C12.2778 23.8616 12.5853 26.6022 13.8809 29.2641C13.8949 29.292 13.8989 29.3241 13.8922 29.355C13.4728 31.3881 13.0612 33.4169 12.6575 35.4412C12.6169 35.645 12.6847 35.8053 12.8609 35.9222Z" fill="#49D660"/>
    <path d="M19.6762 31.9003C19.5965 31.8574 19.5045 31.8451 19.4174 31.8656L15.9149 32.6916C15.9057 32.6936 15.8961 32.6934 15.887 32.6908C15.8779 32.6883 15.8696 32.6835 15.8628 32.677C15.8561 32.6704 15.8512 32.6623 15.8485 32.6534C15.8458 32.6445 15.8454 32.635 15.8474 32.6259L16.6012 28.9866C16.6078 28.9544 16.6032 28.921 16.5881 28.8919C16.3906 28.5231 16.2068 28.1513 16.0368 27.7763C15.8518 27.3713 15.7059 26.9831 15.599 26.6119C14.894 24.1706 15.1124 21.8447 16.2543 19.6341C16.5418 19.0766 16.8837 18.5553 17.2799 18.0703C18.7524 16.2647 20.6465 15.1578 22.9621 14.7497C23.5809 14.6403 24.2034 14.5975 24.8296 14.6213C27.299 14.7156 29.4099 15.6447 31.1624 17.4084C32.0462 18.2978 32.719 19.3397 33.1809 20.5341C33.4027 21.1084 33.5662 21.7097 33.6712 22.3378C34.0043 24.3322 33.7299 26.2294 32.8481 28.0294C32.5749 28.5869 32.244 29.1156 31.8552 29.6156C30.2634 31.6638 28.1477 32.8466 25.5084 33.1641C24.3302 33.3059 23.1356 33.2022 21.9243 32.8528C21.5662 32.7491 21.184 32.6088 20.7777 32.4319C20.3909 32.2638 20.0237 32.0866 19.6762 31.9003ZM21.014 18.3225C20.8034 18.19 20.5905 18.1522 20.3756 18.2091C20.2362 18.2466 20.0646 18.3513 19.8609 18.5231C19.3702 18.9381 18.9859 19.4397 18.7077 20.0278C18.5809 20.2947 18.5118 20.5328 18.5006 20.7422C18.4424 21.8028 18.6862 22.815 19.2318 23.7788C19.5793 24.3925 19.9996 24.9819 20.4927 25.5469C21.4452 26.6381 22.509 27.5747 23.684 28.3566C24.479 28.8859 25.338 29.2738 26.2612 29.52C26.7506 29.65 27.2887 29.7084 27.8756 29.6953C28.6037 29.6791 29.2255 29.4409 29.7412 28.9809C30.1662 28.6009 30.4799 28.2434 30.6824 27.9084C30.9731 27.4272 30.9649 27.0359 30.6581 26.7347C30.5205 26.5997 30.2665 26.4784 29.8959 26.3709C29.3271 26.2066 28.758 26.0431 28.1887 25.8806C27.9624 25.8169 27.794 25.7878 27.6834 25.7934C27.4834 25.8034 27.319 25.8756 27.1902 26.01C27.0234 26.1838 26.8527 26.3531 26.6784 26.5181C26.4546 26.73 26.2571 26.8522 26.0859 26.8847C25.9084 26.9184 25.7352 26.8969 25.5665 26.82C25.544 26.8094 25.3996 26.7225 25.1334 26.5594C23.8315 25.7631 22.7084 24.7441 21.764 23.5022C21.564 23.2391 21.5056 22.9716 21.5887 22.6997C21.6224 22.5903 21.719 22.4328 21.8784 22.2272C21.9921 22.0803 22.1046 21.9325 22.2159 21.7838C22.4152 21.5156 22.4474 21.2253 22.3124 20.9128C22.0118 20.2147 21.7134 19.5159 21.4171 18.8166C21.324 18.5978 21.1896 18.4331 21.014 18.3225Z" fill="#49D660"/>
  </g>
  <defs>
    <clipPath id="clip0_2241_43768">
      <rect width="48" height="48" fill="white" transform="translate(0.5)"/>
    </clipPath>
  </defs>
</svg>