<svg xmlns="http://www.w3.org/2000/svg" width="49" height="48" viewBox="0 0 49 48" fill="none">
<path id="Vector" d="M23.8494 0C24.2869 0 24.7244 0 25.1619 0C30.8219 0.224375 35.7744 2.12625 40.0194 5.70563C40.4981 6.11 40.9584 6.53219 41.4003 6.97219C44.7809 10.3391 46.9756 14.3588 47.9844 19.0312C48.2756 20.3813 48.4475 21.8597 48.5 23.4666C48.5 23.8497 48.5 24.2325 48.5 24.615C48.3844 28.2456 47.5466 31.6091 45.9866 34.7053C43.7872 39.0703 40.5459 42.4747 36.2628 44.9184C35.7109 45.2328 35.155 45.5187 34.595 45.7762C31.6131 47.1481 28.465 47.8894 25.1506 48C24.7288 48 24.3069 48 23.885 48C19.2781 47.8506 15.1178 46.5519 11.4041 44.1038C7.61781 41.6069 4.75844 38.3413 2.82594 34.3069C1.39281 31.3131 0.6175 28.11 0.5 24.6975C0.5 24.2519 0.5 23.8066 0.5 23.3616C0.594375 20.3884 1.16656 17.6266 2.21656 15.0759C4.25781 10.1184 7.51969 6.26312 12.0022 3.51C15.5741 1.31562 19.5231 0.145625 23.8494 0ZM16.7675 26.4356C15.9988 26.6288 15.2475 26.6656 14.5138 26.5462C14.4144 26.53 14.3831 26.5687 14.42 26.6625C14.9881 28.1125 15.9372 29.1584 17.2672 29.8003C17.9297 30.1203 18.6394 30.2966 19.3962 30.3291C19.4769 30.3328 19.485 30.3587 19.4206 30.4069C17.0638 32.1737 14.4256 32.9169 11.5063 32.6362C11.4069 32.6269 11.3997 32.6481 11.4847 32.7C14.7191 34.69 18.2375 35.4403 22.04 34.9509C24.9 34.5822 27.3937 33.5353 29.5212 31.8103C31.3713 30.3103 32.8131 28.4862 33.8469 26.3381C34.9975 23.9469 35.5403 21.4197 35.4753 18.7566C35.475 18.7418 35.4783 18.7272 35.4848 18.714C35.4913 18.7008 35.5009 18.6893 35.5128 18.6806C36.5403 17.905 37.4212 16.9897 38.1556 15.9347C38.1969 15.8766 38.1847 15.8616 38.1191 15.8897C37.1653 16.3059 36.1763 16.5791 35.1519 16.7091C35.07 16.7197 35.0641 16.7028 35.1341 16.6584C36.2028 15.9803 36.9653 15.0241 37.4216 13.7897C37.4509 13.7097 37.4287 13.6909 37.355 13.7334C36.2863 14.3503 35.2131 14.7631 34.1356 14.9719C34.0225 14.9944 33.9228 14.9669 33.8366 14.8894C32.5922 13.7675 31.2122 13.2369 29.6966 13.2975C29.0678 13.3231 28.4603 13.4547 27.8741 13.6922C26.8903 14.0903 26.0913 14.72 25.4769 15.5812C25.1019 16.1069 24.83 16.6659 24.6613 17.2584C24.4169 18.1147 24.3841 19.0153 24.5628 19.9603C24.5649 19.9704 24.5646 19.9808 24.5618 19.9907C24.5591 20.0007 24.5542 20.0099 24.5472 20.0176C24.5403 20.0253 24.5317 20.0314 24.5221 20.0352C24.5124 20.0391 24.502 20.0408 24.4916 20.04C19.9203 19.6894 16.1806 17.7916 13.2725 14.3466C13.267 14.3401 13.2601 14.335 13.2522 14.3318C13.2443 14.3287 13.2358 14.3275 13.2273 14.3284C13.2189 14.3293 13.2108 14.3323 13.2038 14.3371C13.1968 14.3419 13.1911 14.3484 13.1872 14.3559C12.7541 15.1666 12.5212 16.0053 12.4887 16.8722C12.465 17.4916 12.5497 18.1069 12.7428 18.7181C13.1103 19.8862 13.81 20.8394 14.8419 21.5775C14.8994 21.6187 14.8928 21.6372 14.8222 21.6328C13.9972 21.5828 13.2206 21.3656 12.4925 20.9813C12.4865 20.9782 12.4797 20.9767 12.473 20.977C12.4662 20.9773 12.4596 20.9794 12.4539 20.9829C12.4481 20.9865 12.4434 20.9915 12.4401 20.9975C12.4369 21.0034 12.4352 21.0101 12.4353 21.0169C12.4516 22.3556 12.8894 23.5359 13.7488 24.5578C14.5469 25.5059 15.5528 26.1169 16.7666 26.3906C16.8291 26.405 16.8294 26.42 16.7675 26.4356Z" fill="#2E9CEC"/>
</svg>