<svg width="288" height="288" viewBox="0 0 288 288" fill="none" xmlns="http://www.w3.org/2000/svg">
<rect width="288" height="288" fill="white"/>
<g clip-path="url(#clip0_312_29505)">
<mask id="mask0_312_29505" style="mask-type:luminance" maskUnits="userSpaceOnUse" x="48" y="121" width="192" height="46">
<path d="M240 121H48V167H240V121Z" fill="white"/>
</mask>
<g mask="url(#mask0_312_29505)">
<path d="M58.32 140.126C59.28 140.126 60 140.369 60.72 140.853C61.32 141.337 61.8 142.063 61.92 143.032H68.64C68.16 140.369 67.08 138.19 65.16 136.616C63.48 135.163 61.2 134.316 58.44 134.316C56.4 134.316 54.6 134.8 53.04 135.647C51.48 136.495 50.16 137.826 49.32 139.521C48.48 141.216 48 143.153 48 145.453C48 147.753 48.48 149.69 49.32 151.384C50.16 153.079 51.48 154.411 53.04 155.258C54.6 156.105 56.4 156.59 58.44 156.59C61.08 156.59 63.36 155.863 65.16 154.29C66.96 152.716 68.16 150.658 68.64 147.874H61.92C61.68 148.842 61.32 149.569 60.72 150.053C60.12 150.537 59.28 150.779 58.32 150.779C57.24 150.779 56.28 150.295 55.56 149.447C54.84 148.479 54.48 147.147 54.48 145.453C54.48 143.758 54.84 142.305 55.56 141.458C56.28 140.611 57.24 140.126 58.32 140.126ZM84.72 138.553C84.12 137.221 83.28 136.253 82.2 135.405C81 134.679 79.68 134.316 78.12 134.316C76.44 134.316 74.88 134.8 73.56 135.647C72.24 136.495 71.16 137.826 70.32 139.521C69.48 141.216 69.12 143.153 69.12 145.453C69.12 147.753 69.48 149.69 70.32 151.384C71.16 153.079 72.12 154.411 73.56 155.258C74.88 156.105 76.44 156.59 78.12 156.59C79.68 156.59 81.12 156.226 82.2 155.5C83.4 154.774 84.24 153.684 84.72 152.353V156.347H91.08V134.558H84.72V138.553ZM83.4 149.447C82.56 150.416 81.48 150.9 80.04 150.9C78.72 150.9 77.52 150.416 76.68 149.447C75.84 148.479 75.48 147.147 75.48 145.574C75.48 144 75.84 142.547 76.68 141.7C77.52 140.732 78.6 140.247 80.04 140.247C81.36 140.247 82.44 140.732 83.4 141.7C84.24 142.669 84.72 144 84.72 145.574C84.72 147.147 84.24 148.479 83.4 149.447ZM107.16 134.437C105.72 134.437 104.28 134.8 103.08 135.647C101.88 136.374 100.8 137.463 99.96 138.795V134.679H93.6V156.469H99.96V146.542C99.96 144.726 100.44 143.516 101.4 142.669C102.36 141.942 103.68 141.579 105.36 141.579H107.16V134.437ZM122.88 135.647C121.32 134.8 119.52 134.316 117.48 134.316C115.44 134.316 113.64 134.8 112.08 135.647C110.52 136.495 109.2 137.826 108.36 139.521C107.52 141.216 107.04 143.153 107.04 145.453C107.04 147.753 107.52 149.69 108.36 151.384C109.2 153.079 110.52 154.411 112.08 155.258C113.64 156.105 115.44 156.59 117.48 156.59C119.28 156.59 120.84 156.226 122.28 155.5C123.72 154.774 124.92 153.805 125.76 152.595C126.72 151.384 127.32 150.053 127.56 148.479H120.84C120.6 149.205 120.24 149.932 119.64 150.416C119.04 150.9 118.2 151.142 117.24 151.142C116.16 151.142 115.2 150.779 114.48 150.053C113.76 149.326 113.4 148.116 113.28 146.542H127.68C127.8 145.937 127.92 145.332 127.92 144.726C127.92 142.669 127.44 140.853 126.6 139.158C125.64 137.826 124.44 136.616 122.88 135.647ZM113.16 143.879C113.28 142.426 113.64 141.458 114.48 140.732C115.2 140.005 116.28 139.642 117.36 139.642C118.44 139.642 119.4 140.005 120.12 140.732C120.84 141.458 121.2 142.547 121.2 144L113.16 143.879ZM144.12 135.647C142.56 134.8 140.76 134.316 138.72 134.316C136.68 134.316 134.88 134.8 133.32 135.647C131.76 136.495 130.44 137.826 129.6 139.521C128.76 141.216 128.28 143.153 128.28 145.453C128.28 147.753 128.76 149.69 129.6 151.384C130.44 153.079 131.76 154.411 133.32 155.258C134.88 156.105 136.68 156.59 138.72 156.59C140.52 156.59 142.08 156.226 143.52 155.5C144.96 154.774 146.16 153.805 147 152.595C147.96 151.384 148.56 150.053 148.8 148.479H142.08C141.84 149.205 141.48 149.932 140.88 150.416C140.28 150.9 139.44 151.142 138.48 151.142C137.4 151.142 136.44 150.779 135.72 150.053C135 149.326 134.64 148.116 134.52 146.542H148.92C149.04 145.937 149.16 145.332 149.16 144.726C149.16 142.669 148.68 140.853 147.84 139.158C146.88 137.826 145.68 136.616 144.12 135.647ZM134.4 143.879C134.52 142.426 134.88 141.458 135.72 140.732C136.44 140.005 137.52 139.642 138.6 139.642C139.68 139.642 140.64 140.005 141.36 140.732C142.08 141.458 142.44 142.547 142.44 144L134.4 143.879ZM159.96 135.526C158.76 136.253 157.68 137.342 156.84 138.674V134.558H150.48V156.347H156.84V146.421C156.84 144.605 157.32 143.395 158.28 142.547C159.24 141.821 160.56 141.458 162.24 141.458L163.92 141.337V134.437C162.36 134.437 161.16 134.8 159.96 135.526Z" fill="black"/>
<path d="M188.64 138.432C188.04 137.1 187.2 136.132 186.12 135.284C185.04 134.558 183.6 134.195 182.04 134.195C180.36 134.195 178.8 134.679 177.48 135.526C176.16 136.374 175.08 137.705 174.24 139.4C174.12 139.642 174 139.884 174 140.005V134.316H170.28C170.28 133.226 170.64 132.5 171 132.016C171.48 131.532 172.2 131.29 173.28 131.29H174V125.721C173.76 125.721 173.28 125.721 172.68 125.721C169.8 125.721 167.64 126.448 166.2 127.9C164.76 129.353 163.92 131.532 163.92 134.195V134.437V140.126V156.469H170.28V140.126H174C173.4 141.7 173.16 143.395 173.16 145.453C173.16 147.753 173.52 149.69 174.36 151.505C175.08 153.2 176.16 154.532 177.6 155.379C178.92 156.226 180.48 156.711 182.16 156.711C183.72 156.711 185.16 156.348 186.24 155.621C187.32 154.895 188.28 153.805 188.76 152.474V156.469H195.12V134.437H188.76V138.432H188.64ZM187.32 149.448C186.48 150.416 185.4 150.9 184.08 150.9C182.76 150.9 181.68 150.416 180.84 149.448C180 148.479 179.64 147.148 179.64 145.453C179.64 143.758 180 142.426 180.84 141.458C181.68 140.49 182.76 140.005 184.08 140.005C185.4 140.005 186.48 140.49 187.32 141.458C188.16 142.426 188.64 143.758 188.64 145.332C188.64 147.148 188.16 148.358 187.32 149.448Z" fill="#2ABAA5"/>
<path d="M205.68 125.237L201.84 124.632L200.16 121L198.48 124.632L194.64 125.237L197.4 128.021L196.68 132.016L200.28 129.958L203.52 132.016L202.92 128.021L205.68 125.237Z" fill="#2ABAA5"/>
<path d="M232.8 134.195L228.12 147.632L223.2 134.195C221.4 134.195 219.72 134.195 217.92 134.195H217.8C216.48 134.316 215.28 134.679 214.2 135.405C213 136.253 211.92 137.221 211.08 138.553V134.437H204.72V156.469H211.08V146.421C211.08 144.605 211.56 143.274 212.52 142.547C213.48 141.821 214.8 141.458 216.48 141.458H218.28V139.642C220.44 144.847 222.6 150.174 224.76 155.379C223.08 159.132 221.52 162.884 219.84 166.758H226.8L239.76 134.195H232.8Z" fill="#2ABAA5"/>
<path d="M203.04 134.437H196.68V156.469H203.04V134.437Z" fill="#2ABAA5"/>
</g>
</g>
<defs>
<clipPath id="clip0_312_29505">
<rect width="192" height="46" fill="white" transform="translate(48 121)"/>
</clipPath>
</defs>
</svg>
