<svg width="195" height="128" viewBox="0 0 195 128" fill="none" xmlns="http://www.w3.org/2000/svg">
<g clip-path="url(#clip0_19547_26654)">
<g clip-path="url(#clip1_19547_26654)">
<path d="M22.709 40.4773C22.709 36.7008 25.7704 33.6394 29.5469 33.6394H131.884C135.66 33.6394 138.722 36.7008 138.722 40.4773V139.779H22.709V40.4773Z" fill="url(#paint0_linear_19547_26654)"/>
<rect x="25.6719" y="36.6014" width="110.089" height="35.2094" rx="4.11983" fill="#F1F4F6"/>
<circle cx="32.523" cy="44.5932" r="3.43319" fill="#D3D9E2"/>
<rect x="37.3301" y="43.22" width="27.4655" height="2.74655" rx="1.37328" fill="#D3D9E2"/>
<rect x="29.0898" y="53.5195" width="70.0371" height="5.49311" rx="2.74655" fill="#D3D9E2"/>
<rect x="101.873" y="53.5195" width="24.719" height="5.49311" rx="2.74655" fill="#D3D9E2"/>
<rect x="29.0898" y="64.5056" width="12.3595" height="2.74655" rx="1.37328" fill="#D3D9E2"/>
<rect x="42.8223" y="64.5056" width="12.3595" height="2.74655" rx="1.37328" fill="#D3D9E2"/>
<rect x="56.5547" y="64.5056" width="12.3595" height="2.74655" rx="1.37328" fill="#D3D9E2"/>
<rect x="25.6719" y="76.4546" width="82.443" height="3.94937" rx="1.97468" fill="#F1F4F6"/>
<rect x="110.861" y="76.3694" width="24.899" height="4.11983" rx="2.05991" fill="#F1F4F6"/>
<rect x="25.6719" y="84.6091" width="46.6914" height="4.11983" rx="2.05991" fill="#F1F4F6"/>
<rect x="75.1094" y="84.6091" width="60.6507" height="4.11983" rx="2.05991" fill="#F1F4F6"/>
<rect x="25.6719" y="92.8486" width="46.8987" height="4.44304" rx="2.22152" fill="#F1F4F6"/>
<rect x="75.3164" y="93.01" width="23.3457" height="4.11983" rx="2.05991" fill="#F1F4F6"/>
<rect x="101.41" y="93.0103" width="34.3511" height="4.11983" rx="2.05991" fill="#F1F4F6"/>
<rect x="25.6719" y="101.412" width="63.1707" height="4.11983" rx="2.05991" fill="#F1F4F6"/>
<rect x="91.5898" y="101.412" width="23.3457" height="4.11983" rx="2.05991" fill="#F1F4F6"/>
<rect x="117.682" y="101.412" width="18.0791" height="4.11983" rx="2.05991" fill="#F1F4F6"/>
<rect x="25.6719" y="114.734" width="80.962" height="3.94937" rx="1.97468" fill="#F1F4F6"/>
<rect x="109.381" y="114.648" width="26.38" height="4.11983" rx="2.05991" fill="#F1F4F6"/>
<rect x="25.6719" y="122.888" width="46.6914" height="4.11983" rx="2.05991" fill="#F1F4F6"/>
<rect x="75.1094" y="122.888" width="60.6507" height="4.11983" rx="2.05991" fill="#F1F4F6"/>
</g>
<path d="M22.4621 40.4773C22.4621 36.5645 25.6341 33.3926 29.5469 33.3926H131.884C135.797 33.3926 138.968 36.5645 138.968 40.4773H138.475C138.475 36.8371 135.524 33.8862 131.884 33.8862H29.5469C25.9067 33.8862 22.9558 36.8371 22.9558 40.4773H22.4621ZM138.722 139.779H22.709H138.722ZM22.4621 139.779V40.4773C22.4621 36.5645 25.6341 33.3926 29.5469 33.3926V33.8862C25.9067 33.8862 22.9558 36.8371 22.9558 40.4773V139.779H22.4621ZM131.884 33.3926C135.797 33.3926 138.968 36.5645 138.968 40.4773V139.779H138.475V40.4773C138.475 36.8371 135.524 33.8862 131.884 33.8862V33.3926Z" fill="#E6E8EB"/>
<g clip-path="url(#clip2_19547_26654)">
<path d="M59.7324 40.4773C59.7324 36.7008 62.7938 33.6394 66.5703 33.6394H168.907C172.684 33.6394 175.745 36.7008 175.745 40.4773V139.779H59.7324V40.4773Z" fill="url(#paint1_linear_19547_26654)"/>
<rect x="62.6953" y="36.6014" width="110.089" height="35.2094" rx="4.11983" fill="#F1F4F6"/>
<circle cx="69.5465" cy="44.5932" r="3.43319" fill="#D3D9E2"/>
<rect x="74.3535" y="43.22" width="27.4655" height="2.74655" rx="1.37328" fill="#D3D9E2"/>
<rect x="66.1133" y="53.5195" width="70.0371" height="5.49311" rx="2.74655" fill="#D3D9E2"/>
<rect x="138.896" y="53.5195" width="24.719" height="5.49311" rx="2.74655" fill="#D3D9E2"/>
<rect x="66.1133" y="64.5056" width="12.3595" height="2.74655" rx="1.37328" fill="#D3D9E2"/>
<rect x="79.8457" y="64.5056" width="12.3595" height="2.74655" rx="1.37328" fill="#D3D9E2"/>
<rect x="93.5781" y="64.5056" width="12.3595" height="2.74655" rx="1.37328" fill="#D3D9E2"/>
<rect x="62.6953" y="76.4546" width="82.443" height="3.94937" rx="1.97468" fill="#F1F4F6"/>
<rect x="147.885" y="76.3694" width="24.899" height="4.11983" rx="2.05991" fill="#F1F4F6"/>
<rect x="62.6953" y="84.6091" width="46.6914" height="4.11983" rx="2.05991" fill="#F1F4F6"/>
<rect x="112.133" y="84.6091" width="60.6507" height="4.11983" rx="2.05991" fill="#F1F4F6"/>
<rect x="62.6953" y="92.8486" width="46.8987" height="4.44304" rx="2.22152" fill="#F1F4F6"/>
<rect x="112.34" y="93.0103" width="23.3457" height="4.11983" rx="2.05991" fill="#F1F4F6"/>
<rect x="138.434" y="93.0103" width="34.3511" height="4.11983" rx="2.05991" fill="#F1F4F6"/>
<rect x="62.6953" y="101.412" width="63.1707" height="4.11983" rx="2.05991" fill="#F1F4F6"/>
<rect x="128.613" y="101.412" width="23.3457" height="4.11983" rx="2.05991" fill="#F1F4F6"/>
<rect x="154.705" y="101.412" width="18.0791" height="4.11983" rx="2.05991" fill="#F1F4F6"/>
<rect x="62.6953" y="114.734" width="80.962" height="3.94937" rx="1.97468" fill="#F1F4F6"/>
<rect x="146.404" y="114.648" width="26.38" height="4.11983" rx="2.05991" fill="#F1F4F6"/>
<rect x="62.6953" y="122.888" width="46.6914" height="4.11983" rx="2.05991" fill="#F1F4F6"/>
<rect x="112.133" y="122.888" width="60.6507" height="4.11983" rx="2.05991" fill="#F1F4F6"/>
</g>
<path d="M59.4856 40.4773C59.4856 36.5645 62.6575 33.3926 66.5703 33.3926H168.907C172.82 33.3926 175.992 36.5645 175.992 40.4773H175.498C175.498 36.8371 172.547 33.8862 168.907 33.8862H66.5703C62.9302 33.8862 59.9793 36.8371 59.9793 40.4773H59.4856ZM175.745 139.779H59.7324H175.745ZM59.4856 139.779V40.4773C59.4856 36.5645 62.6575 33.3926 66.5703 33.3926V33.8862C62.9302 33.8862 59.9793 36.8371 59.9793 40.4773V139.779H59.4856ZM168.907 33.3926C172.82 33.3926 175.992 36.5645 175.992 40.4773V139.779H175.498V40.4773C175.498 36.8371 172.547 33.8862 168.907 33.8862V33.3926Z" fill="#E6E8EB"/>
<g filter="url(#filter0_d_19547_26654)">
<g clip-path="url(#clip3_19547_26654)">
<path d="M39.4922 32.5795C39.4922 28.803 42.5536 25.7416 46.3301 25.7416H148.667C152.443 25.7416 155.505 28.803 155.505 32.5794V131.881H39.4922V32.5795Z" fill="url(#paint2_linear_19547_26654)"/>
<rect x="42.4531" y="28.7035" width="110.089" height="35.2094" rx="4.11983" fill="#F1F4F6"/>
<circle cx="49.3043" cy="36.6953" r="3.43319" fill="#D3D9E2"/>
<rect x="54.1113" y="35.322" width="27.4655" height="2.74655" rx="1.37328" fill="#D3D9E2"/>
<rect x="45.8711" y="45.6216" width="70.0371" height="5.49311" rx="2.74655" fill="#D3D9E2"/>
<rect x="118.654" y="45.6216" width="24.719" height="5.49311" rx="2.74655" fill="#D3D9E2"/>
<rect x="45.8711" y="56.6077" width="12.3595" height="2.74655" rx="1.37328" fill="#D3D9E2"/>
<rect x="59.6035" y="56.6077" width="12.3595" height="2.74655" rx="1.37328" fill="#D3D9E2"/>
<rect x="73.3359" y="56.6077" width="12.3595" height="2.74655" rx="1.37328" fill="#D3D9E2"/>
<rect x="42.4531" y="68.5566" width="82.443" height="3.94937" rx="1.97468" fill="#F1F4F6"/>
<rect x="127.643" y="68.4714" width="24.899" height="4.11983" rx="2.05991" fill="#F1F4F6"/>
<rect x="42.4531" y="76.7112" width="46.6914" height="4.11983" rx="2.05991" fill="#F1F4F6"/>
<rect x="91.8906" y="76.7112" width="60.6507" height="4.11983" rx="2.05991" fill="#F1F4F6"/>
<rect x="42.4531" y="84.9507" width="46.8987" height="4.44304" rx="2.22152" fill="#F1F4F6"/>
<rect x="92.0977" y="85.1123" width="23.3457" height="4.11983" rx="2.05991" fill="#F1F4F6"/>
<rect x="118.191" y="85.1123" width="34.3511" height="4.11983" rx="2.05991" fill="#F1F4F6"/>
<rect x="42.4531" y="93.5137" width="63.1707" height="4.11983" rx="2.05991" fill="#F1F4F6"/>
<rect x="108.371" y="93.5137" width="23.3457" height="4.11983" rx="2.05991" fill="#F1F4F6"/>
<rect x="134.463" y="93.5137" width="18.0791" height="4.11983" rx="2.05991" fill="#F1F4F6"/>
<rect x="42.4531" y="106.836" width="80.962" height="3.94937" rx="1.97468" fill="#F1F4F6"/>
<rect x="126.162" y="106.75" width="26.38" height="4.11983" rx="2.05991" fill="#F1F4F6"/>
<rect x="42.4531" y="114.99" width="46.6914" height="4.11983" rx="2.05991" fill="#F1F4F6"/>
<rect x="91.8906" y="114.99" width="60.6507" height="4.11983" rx="2.05991" fill="#F1F4F6"/>
<rect x="42.4531" y="123.315" width="59.7342" height="3.94937" rx="1.97468" fill="#F1F4F6"/>
<rect x="104.934" y="123.23" width="23.3457" height="4.11983" rx="2.05991" fill="#F1F4F6"/>
<rect x="131.025" y="123.23" width="21.5156" height="4.11983" rx="2.05991" fill="#F1F4F6"/>
</g>
<path d="M39.2454 32.5794C39.2454 28.6667 42.4173 25.4947 46.3301 25.4947H148.667C152.58 25.4947 155.752 28.6667 155.752 32.5794H155.258C155.258 28.9393 152.307 25.9884 148.667 25.9884H46.3301C42.6899 25.9884 39.739 28.9393 39.739 32.5794H39.2454ZM155.505 131.881H39.4922H155.505ZM39.2454 131.881V32.5794C39.2454 28.6667 42.4173 25.4947 46.3301 25.4947V25.9884C42.6899 25.9884 39.739 28.9393 39.739 32.5794V131.881H39.2454ZM148.667 25.4947C152.58 25.4947 155.752 28.6667 155.752 32.5794V131.881H155.258V32.5794C155.258 28.9393 152.307 25.9884 148.667 25.9884V25.4947Z" fill="#E6E8EB"/>
</g>
<rect y="115.096" width="194.879" height="12.5361" fill="url(#paint3_linear_19547_26654)"/>
</g>
<defs>
<filter id="filter0_d_19547_26654" x="27.398" y="13.6467" width="140.202" height="130.082" filterUnits="userSpaceOnUse" color-interpolation-filters="sRGB">
<feFlood flood-opacity="0" result="BackgroundImageFix"/>
<feColorMatrix in="SourceAlpha" type="matrix" values="0 0 0 0 0 0 0 0 0 0 0 0 0 0 0 0 0 0 127 0" result="hardAlpha"/>
<feOffset/>
<feGaussianBlur stdDeviation="5.92405"/>
<feComposite in2="hardAlpha" operator="out"/>
<feColorMatrix type="matrix" values="0 0 0 0 0.0791667 0 0 0 0 0.0765278 0 0 0 0 0.0765278 0 0 0 0.08 0"/>
<feBlend mode="normal" in2="BackgroundImageFix" result="effect1_dropShadow_19547_26654"/>
<feBlend mode="normal" in="SourceGraphic" in2="effect1_dropShadow_19547_26654" result="shape"/>
</filter>
<linearGradient id="paint0_linear_19547_26654" x1="80.7153" y1="33.6394" x2="80.7153" y2="139.779" gradientUnits="userSpaceOnUse">
<stop stop-color="#FAFAFA"/>
<stop offset="1" stop-color="white"/>
</linearGradient>
<linearGradient id="paint1_linear_19547_26654" x1="117.739" y1="33.6394" x2="117.739" y2="139.779" gradientUnits="userSpaceOnUse">
<stop stop-color="#FAFAFA"/>
<stop offset="1" stop-color="white"/>
</linearGradient>
<linearGradient id="paint2_linear_19547_26654" x1="97.4985" y1="25.7416" x2="97.4985" y2="131.881" gradientUnits="userSpaceOnUse">
<stop stop-color="#FAFAFA"/>
<stop offset="1" stop-color="white"/>
</linearGradient>
<linearGradient id="paint3_linear_19547_26654" x1="97.4396" y1="115.096" x2="97.4396" y2="127.632" gradientUnits="userSpaceOnUse">
<stop stop-color="white" stop-opacity="0"/>
<stop offset="1" stop-color="white"/>
</linearGradient>
<clipPath id="clip0_19547_26654">
<rect width="195" height="126.873" fill="white" transform="translate(0 0.563232)"/>
</clipPath>
<clipPath id="clip1_19547_26654">
<path d="M22.709 40.4773C22.709 36.7008 25.7704 33.6394 29.5469 33.6394H131.884C135.66 33.6394 138.722 36.7008 138.722 40.4773V139.779H22.709V40.4773Z" fill="white"/>
</clipPath>
<clipPath id="clip2_19547_26654">
<path d="M59.7324 40.4773C59.7324 36.7008 62.7938 33.6394 66.5703 33.6394H168.907C172.684 33.6394 175.745 36.7008 175.745 40.4773V139.779H59.7324V40.4773Z" fill="white"/>
</clipPath>
<clipPath id="clip3_19547_26654">
<path d="M39.4922 32.5795C39.4922 28.803 42.5536 25.7416 46.3301 25.7416H148.667C152.443 25.7416 155.505 28.803 155.505 32.5794V131.881H39.4922V32.5795Z" fill="white"/>
</clipPath>
</defs>
</svg>
