<?xml version="1.0" encoding="UTF-8" standalone="no"?>
<!DOCTYPE svg PUBLIC "-//W3C//DTD SVG 1.1//EN" "http://www.w3.org/Graphics/SVG/1.1/DTD/svg11.dtd">
<svg version="1.1" xmlns="http://www.w3.org/2000/svg" xmlns:xlink="http://www.w3.org/1999/xlink" preserveAspectRatio="xMidYMid meet" viewBox="0 0 241 241" width="241" height="241"><defs><path d="M19.53 103.61L214.52 103.61L214.52 125.4L19.53 125.4L19.53 103.61Z" id="ck4WaptBp"></path><path d="M100.77 60.01L223.89 60.01L223.89 81.81L100.77 81.81L100.77 60.01Z" id="a2aVUZgdTT"></path><path d="M16.52 147.2L78.38 147.2L78.38 169L16.52 169L16.52 147.2Z" id="b4Sx6IzzS"></path><path d="M89.57 158.1C89.57 164.11 84.56 169 78.38 169C72.2 169 67.19 164.11 67.19 158.1C67.19 152.08 72.2 147.2 78.38 147.2C84.56 147.2 89.57 152.08 89.57 158.1Z" id="dfbbc0AGc"></path><path d="M27.72 158.1C27.72 164.11 22.7 169 16.52 169C10.35 169 5.33 164.11 5.33 158.1C5.33 152.08 10.35 147.2 16.52 147.2C22.7 147.2 27.72 152.08 27.72 158.1Z" id="az4qwfNv6"></path><path d="M225.72 114.5C225.72 120.52 220.7 125.4 214.52 125.4C208.35 125.4 203.33 120.52 203.33 114.5C203.33 108.49 208.35 103.61 214.52 103.61C220.7 103.61 225.72 108.49 225.72 114.5Z" id="c7kMZlPtPP"></path><path d="M30.72 114.5C30.72 120.52 25.71 125.4 19.53 125.4C13.35 125.4 8.34 120.52 8.34 114.5C8.34 108.49 13.35 103.61 19.53 103.61C25.71 103.61 30.72 108.49 30.72 114.5Z" id="g5ZFieWBm"></path><path d="M235.67 70.91C235.67 76.93 230.65 81.81 224.48 81.81C218.3 81.81 213.28 76.93 213.28 70.91C213.28 64.9 218.3 60.01 224.48 60.01C230.65 60.01 235.67 64.9 235.67 70.91Z" id="a21aqwYKy9"></path><path d="M111.96 70.91C111.96 76.93 106.94 81.81 100.77 81.81C94.59 81.81 89.57 76.93 89.57 70.91C89.57 64.9 94.59 60.01 100.77 60.01C106.94 60.01 111.96 64.9 111.96 70.91Z" id="bset7ndnW"></path></defs><g><g><g><use xlink:href="#ck4WaptBp" opacity="1" fill="#00d2aa" fill-opacity="1"></use></g><g><use xlink:href="#a2aVUZgdTT" opacity="1" fill="#00d2aa" fill-opacity="1"></use></g><g><use xlink:href="#b4Sx6IzzS" opacity="1" fill="#00d2aa" fill-opacity="1"></use></g><g><use xlink:href="#dfbbc0AGc" opacity="1" fill="#00d2aa" fill-opacity="1"></use></g><g><use xlink:href="#az4qwfNv6" opacity="1" fill="#00d2aa" fill-opacity="1"></use></g><g><use xlink:href="#c7kMZlPtPP" opacity="1" fill="#00d2aa" fill-opacity="1"></use></g><g><use xlink:href="#g5ZFieWBm" opacity="1" fill="#00d2aa" fill-opacity="1"></use></g><g><use xlink:href="#a21aqwYKy9" opacity="1" fill="#00d2aa" fill-opacity="1"></use></g><g><use xlink:href="#bset7ndnW" opacity="1" fill="#00d2aa" fill-opacity="1"></use></g></g></g></svg>