<?xml version="1.0" encoding="UTF-8" standalone="no"?>
<!DOCTYPE svg PUBLIC "-//W3C//DTD SVG 1.1//EN" "http://www.w3.org/Graphics/SVG/1.1/DTD/svg11.dtd">
<svg version="1.1" xmlns="http://www.w3.org/2000/svg" xmlns:xlink="http://www.w3.org/1999/xlink" preserveAspectRatio="xMidYMid meet" viewBox="0 0 640 144.46" width="640" height="144.46"><defs><path d="M42.33 62.59C44.41 64.23 45.77 66.55 46.44 69.51C48.69 69.51 66.72 69.51 68.97 69.51C67.39 60.93 63.58 54.19 57.52 49.28C51.46 44.38 43.95 41.92 34.99 41.92C28.19 41.92 22.13 43.34 16.81 46.19C11.5 49.04 7.38 53.11 4.43 58.44C1.47 63.76 0 70.04 0 77.3C0 84.47 1.5 90.75 4.48 96.11C7.47 101.48 11.59 105.57 16.87 108.42C22.14 111.28 28.18 112.7 34.98 112.7C43.94 112.7 51.45 110.25 57.51 105.33C63.56 100.43 67.39 93.69 68.96 85.1C66.7 85.1 48.68 85.1 46.43 85.1C45.76 88.08 44.39 90.38 42.32 92.03C40.24 93.67 37.63 94.5 34.47 94.5C30.74 94.5 27.67 93.04 25.26 90.11C22.85 87.18 21.65 82.92 21.65 77.31C21.65 71.7 22.85 67.43 25.26 64.51C27.67 61.57 30.75 60.11 34.49 60.11C37.63 60.11 40.26 60.94 42.33 62.59ZM113.9 45.52C110.08 43.12 105.52 41.93 100.2 41.93C94.47 41.93 89.35 43.35 84.83 46.2C80.31 49.05 76.75 53.12 74.12 58.45C71.51 63.76 70.2 70.06 70.2 77.31C70.2 84.49 71.51 90.75 74.12 96.12C76.74 101.49 80.31 105.59 84.83 108.44C89.36 111.29 94.49 112.71 100.2 112.71C105.52 112.71 110.08 111.52 113.9 109.12C117.71 106.72 120.54 103.47 122.36 99.35C122.36 100.18 122.36 104.34 122.36 111.84L143.52 111.84L143.52 42.79L122.36 42.79L122.36 55.29C119.26 50.37 116.44 47.12 113.9 45.52ZM107.04 94.13C102.48 94.13 98.81 92.64 96.03 89.67C93.24 86.7 91.85 82.57 91.85 77.3C91.85 72.02 93.24 67.9 96.03 64.93C98.81 61.96 102.48 60.47 107.04 60.47C111.53 60.47 115.2 61.97 118.06 64.98C120.93 68 122.36 72.09 122.36 77.29C122.36 82.41 120.93 86.5 118.06 89.55C115.2 92.6 111.53 94.13 107.04 94.13ZM183.54 45.76C179.35 48.24 175.92 51.57 173.27 55.77C173.27 54.91 173.27 50.58 173.27 42.79L151.98 42.79L151.98 111.81L173.27 111.81C173.27 92.96 173.27 82.49 173.27 80.39C173.27 74.7 174.82 70.66 177.94 68.26C181.05 65.87 185.43 64.68 191.07 64.68C191.48 64.68 193.52 64.68 197.18 64.68L197.18 42.05C190.88 42.87 186.33 44.11 183.54 45.76ZM231.26 41.93C224.46 41.93 218.4 43.35 213.08 46.2C207.77 49.05 203.65 53.12 200.7 58.45C197.76 63.76 196.28 70.06 196.28 77.31C196.28 84.49 197.78 90.75 200.77 96.12C203.75 101.49 207.88 105.59 213.15 108.44C218.42 111.29 224.46 112.71 231.26 112.71C237.07 112.71 242.35 111.61 247.07 109.43C251.8 107.25 255.71 104.23 258.77 100.39C261.84 96.56 263.83 92.21 264.74 87.34C262.49 87.34 244.47 87.34 242.21 87.34C241.54 89.82 240.18 91.84 238.1 93.4C236.03 94.97 233.42 95.76 230.26 95.76C226.52 95.76 223.46 94.62 221.05 92.36C218.64 90.1 217.31 86.36 217.06 81.17C221.88 81.17 260.41 81.17 265.23 81.17C265.64 79.11 265.86 77.21 265.86 75.48C265.86 68.88 264.42 63.04 261.56 57.97C258.72 52.87 254.68 48.93 249.44 46.13C244.21 43.34 238.16 41.93 231.26 41.93ZM221.56 62.09C224.13 59.79 227.37 58.62 231.26 58.62C235 58.62 238.13 59.76 240.66 62.02C243.19 64.3 244.41 67.7 244.33 72.23C242.52 72.23 233.48 72.23 217.21 72.23C218.39 67.01 219.84 63.64 221.56 62.09ZM302.09 41.93C295.29 41.93 289.23 43.35 283.91 46.2C278.6 49.05 274.48 53.12 271.53 58.45C268.59 63.76 267.11 70.06 267.11 77.31C267.11 84.49 268.61 90.75 271.6 96.12C274.58 101.49 278.71 105.59 283.98 108.44C289.26 111.29 295.29 112.71 302.09 112.71C307.9 112.71 313.18 111.61 317.9 109.43C322.63 107.25 326.54 104.23 329.61 100.39C332.67 96.56 334.67 92.21 335.58 87.34C333.32 87.34 315.3 87.34 313.05 87.34C312.38 89.82 311.01 91.84 308.94 93.4C306.86 94.97 304.25 95.76 301.09 95.76C297.36 95.76 294.29 94.62 291.88 92.36C289.47 90.1 288.15 86.36 287.89 81.17C292.71 81.17 331.24 81.17 336.06 81.17C336.47 79.11 336.69 77.21 336.69 75.48C336.69 68.88 335.25 63.04 332.39 57.97C329.55 52.87 325.5 48.93 320.27 46.13C315.04 43.34 308.99 41.93 302.09 41.93ZM292.39 62.09C294.96 59.79 298.2 58.62 302.09 58.62C305.83 58.62 308.96 59.76 311.49 62.02C314.02 64.3 315.24 67.7 315.16 72.23C313.35 72.23 304.31 72.23 288.04 72.23C289.23 67.01 290.68 63.64 292.39 62.09ZM362.85 55.77C362.85 54.91 362.85 50.58 362.85 42.79L341.56 42.79L341.56 111.81L362.85 111.81C362.85 92.96 362.85 82.49 362.85 80.39C362.85 74.7 364.4 70.66 367.52 68.26C370.62 65.87 375 64.68 380.65 64.68C381.03 64.65 382.9 64.53 386.29 64.3C386.29 51.1 386.29 43.76 386.29 42.29C381.39 42.29 377.3 43.28 373.11 45.76C368.92 48.24 365.5 51.57 362.85 55.77Z" id="b27r4dx5ad"></path><path d="M460.4 45.09C456.6 42.68 452.06 41.48 446.78 41.48C441.09 41.48 435.99 42.91 431.49 45.79C427 48.65 423.45 52.77 420.85 58.14C420.52 58.83 420.21 59.52 419.93 60.24C419.93 59.05 419.93 53.08 419.93 42.35C412.43 42.35 408.26 42.35 407.42 42.35C407.59 39.01 408.46 36.6 410.02 35.1C411.59 33.6 414.11 32.85 417.57 32.85C417.73 32.86 418.51 32.9 419.93 32.97C419.93 21.97 419.93 15.86 419.93 14.63C418.94 14.55 417.45 14.51 415.47 14.51C405.98 14.51 398.74 16.87 393.76 21.57C388.76 26.27 386.27 32.95 386.27 41.61C386.27 41.66 386.27 41.91 386.27 42.36L386.27 60.34L386.27 112.01L407.44 112.01L407.44 60.34C414.92 60.34 419.07 60.34 419.9 60.34C417.95 65.22 416.97 70.83 416.97 77.19C416.97 84.43 418.27 90.75 420.87 96.16C423.46 101.57 427.01 105.71 431.51 108.59C436.01 111.45 441.09 112.9 446.8 112.9C452.07 112.9 456.61 111.69 460.41 109.28C464.2 106.87 467.01 103.58 468.83 99.41C468.83 100.26 468.83 104.46 468.83 112.03L489.86 112.03L489.86 42.35L468.82 42.35L468.82 54.96C465.74 49.99 462.93 46.71 460.4 45.09ZM453.6 94.15C449.06 94.15 445.4 92.65 442.65 89.66C439.88 86.66 438.5 82.49 438.5 77.18C438.5 71.85 439.88 67.69 442.65 64.7C445.4 61.7 449.06 60.2 453.6 60.2C458.06 60.2 461.7 61.72 464.55 64.76C467.4 67.79 468.82 71.93 468.82 77.18C468.82 82.35 467.4 86.46 464.55 89.54C461.7 92.61 458.06 94.15 453.6 94.15Z" id="c1hsLlsrwI"></path><path d="M512.71 11.42L506.99 0L501.26 11.42L488.43 13.24L497.71 22.13L495.47 34.66L507.45 28.33L518.39 34.66L516.24 22.13L525.53 13.24L512.71 11.42Z" id="a1xz5JtVYI"></path><path d="M600.61 84.29C590.66 58.67 585.13 44.44 584.03 41.6C578.22 41.6 572.39 41.6 566.58 41.6C566.45 41.6 566.33 41.61 566.22 41.65C561.97 41.89 557.98 43.12 554.27 45.34C550.11 47.83 546.7 51.21 544.05 55.45C544.05 54.58 544.05 50.21 544.05 42.35L522.89 42.35L522.89 112L544.05 112C544.05 92.98 544.05 82.41 544.05 80.3C544.05 74.56 545.61 70.49 548.7 68.06C551.79 65.65 556.14 64.45 561.75 64.45C562.16 64.45 564.18 64.45 567.82 64.45C567.82 61.06 567.82 59.17 567.82 58.8C574.99 75.41 582.17 92.03 589.34 108.64C583.93 120.58 578.54 132.52 573.13 144.46C574.68 144.46 582.44 144.46 596.4 144.46L639.46 41.6L616.08 41.6L600.61 84.29Z" id="ap1KuUYZx"></path><path d="M516.96 42.35C516.96 42.35 516.96 42.35 516.96 42.35C516.96 84.14 516.96 107.36 516.96 112C516.96 112 516.96 112 516.96 112C504.26 112 497.2 112 495.79 112C495.79 112 495.79 112 495.79 112C495.79 70.21 495.79 46.99 495.79 42.35C495.79 42.35 495.79 42.35 495.79 42.35C508.49 42.35 515.55 42.35 516.96 42.35Z" id="aFcGNPm1c"></path></defs><g><g><g><use xlink:href="#b27r4dx5ad" opacity="1" fill="#ffffff" fill-opacity="1"></use><g><use xlink:href="#b27r4dx5ad" opacity="1" fill-opacity="0" stroke="#000000" stroke-width="1" stroke-opacity="0"></use></g></g><g><use xlink:href="#c1hsLlsrwI" opacity="1" fill="#ffffff" fill-opacity="1"></use><g><use xlink:href="#c1hsLlsrwI" opacity="1" fill-opacity="0" stroke="#000000" stroke-width="1" stroke-opacity="0"></use></g></g><g><use xlink:href="#a1xz5JtVYI" opacity="1" fill="#ffffff" fill-opacity="1"></use><g><use xlink:href="#a1xz5JtVYI" opacity="1" fill-opacity="0" stroke="#000000" stroke-width="1" stroke-opacity="0"></use></g></g><g><use xlink:href="#ap1KuUYZx" opacity="1" fill="#ffffff" fill-opacity="1"></use><g><use xlink:href="#ap1KuUYZx" opacity="1" fill-opacity="0" stroke="#000000" stroke-width="1" stroke-opacity="0"></use></g></g><g><use xlink:href="#aFcGNPm1c" opacity="1" fill="#ffffff" fill-opacity="1"></use><g><use xlink:href="#aFcGNPm1c" opacity="1" fill-opacity="0" stroke="#000000" stroke-width="1" stroke-opacity="0"></use></g></g></g></g></svg>